<svg width="25" height="24" viewBox="0 0 25 24" fill="none" xmlns="http://www.w3.org/2000/svg">
<path fill-rule="evenodd" clip-rule="evenodd" d="M5 16.7499V13.707C5 13.5744 5.05268 13.4472 5.14645 13.3535L15.8964 2.60348C16.0917 2.40822 16.4083 2.40822 16.6036 2.60348L19.6464 5.64637C19.8417 5.84163 19.8417 6.15822 19.6464 6.35348L8.89645 17.1035C8.80268 17.1972 8.6755 17.2499 8.54289 17.2499H5.5C5.22386 17.2499 5 17.0261 5 16.7499ZM5 20.2499C4.58579 20.2499 4.25 20.5857 4.25 20.9999C4.25 21.4141 4.58579 21.7499 5 21.7499H20C20.4142 21.7499 20.75 21.4141 20.75 20.9999C20.75 20.5857 20.4142 20.2499 20 20.2499H5Z" fill="#C6C6D7"/>
</svg>
