<svg width="24" height="24" viewBox="0 0 24 24" fill="none" xmlns="http://www.w3.org/2000/svg">
<path fill-rule="evenodd" clip-rule="evenodd" d="M11.9999 12C14.7613 12 16.9999 9.76142 16.9999 7C16.9999 4.23858 14.7613 2 11.9999 2C9.23845 2 6.99988 4.23858 6.99988 7C6.99988 9.76142 9.23845 12 11.9999 12ZM4.05745 17.4231C2.94289 18.8776 3.62634 20.9118 5.31071 21.6334C7.36373 22.513 9.62491 23 11.9998 23C14.3748 23 16.6359 22.513 18.689 21.6334C20.3733 20.9118 21.0568 18.8776 19.9422 17.4231C18.1146 15.038 15.2368 13.5 11.9998 13.5C8.76286 13.5 5.8851 15.038 4.05745 17.4231Z" fill="#C6C6D7"/>
</svg>
