<svg width="1920" height="982" viewBox="0 0 1920 982" fill="none" xmlns="http://www.w3.org/2000/svg">
<mask id="mask0_50_7" style="mask-type:alpha" maskUnits="userSpaceOnUse" x="0" y="0" width="1920" height="982">
<rect width="1920" height="982" fill="#202763"/>
</mask>
<g mask="url(#mask0_50_7)">
<path fill-rule="evenodd" clip-rule="evenodd" d="M357.71 741H339.98V981.65H357.71V741ZM200.8 758.58H183.07V981.65H200.8V758.58ZM43.8804 801.1H26.1504V981.65H43.8804V801.1ZM17.73 930.19H0V981.65H17.73V930.19ZM52.2998 877.15H70.0298V981.65H52.2998V877.15ZM96.19 824.47H78.46V981.65H96.19V824.47ZM104.61 886.21H122.34V981.65H104.61V886.21ZM148.49 834.48H130.76V981.65H148.49V834.48ZM156.91 808.9H174.64V981.65H156.91V808.9ZM209.22 780.51H226.95V981.65H209.22V780.51ZM253.1 819.46H235.37V981.65H253.1V819.46ZM261.52 867.31H279.25V981.65H261.52V867.31ZM305.41 905.71H287.67V981.65H305.41V905.71ZM313.83 859.52H331.56V981.65H313.83V859.52ZM366.13 768.82H383.87V981.65H366.13V768.82ZM410.02 845.61H392.29V981.65H410.02V845.61ZM418.44 948H436.17V981.65H418.44V948ZM462.33 913.63H444.59V981.65H462.33V913.63ZM470.74 851.53H488.47V981.65H470.74V851.53ZM514.62 774.94H496.89V981.65H514.62V774.94ZM523.05 839.49H540.78V981.65H523.05V839.49ZM566.93 863.97H549.2V981.65H566.93V863.97ZM575.35 824.47H593.09V981.65H575.35V824.47ZM619.23 892.91H601.5V981.65H619.23V892.91ZM627.66 929.4H645.39V981.65H627.66V929.4ZM671.54 857.3H653.81V981.65H671.54V857.3ZM679.96 782.73H697.69V981.65H679.96V782.73ZM723.84 900.55H706.11V981.65H723.84V900.55ZM732.26 863.97H750V981.65H732.26V863.97Z" fill="#212C67"/>
<path fill-rule="evenodd" clip-rule="evenodd" d="M1115.71 741H1097.98V981.65H1115.71V741ZM958.8 758.58H941.07V981.65H958.8V758.58ZM801.88 801.1H784.15V981.65H801.88V801.1ZM775.73 930.19H758V981.65H775.73V930.19ZM810.3 877.15H828.03V981.65H810.3V877.15ZM854.19 824.47H836.46V981.65H854.19V824.47ZM862.61 886.21H880.34V981.65H862.61V886.21ZM906.49 834.48H888.76V981.65H906.49V834.48ZM914.91 808.9H932.64V981.65H914.91V808.9ZM967.22 780.51H984.95V981.65H967.22V780.51ZM1011.1 819.46H993.37V981.65H1011.1V819.46ZM1019.52 867.31H1037.25V981.65H1019.52V867.31ZM1063.41 905.71H1045.67V981.65H1063.41V905.71ZM1071.83 859.52H1089.56V981.65H1071.83V859.52ZM1124.13 768.82H1141.87V981.65H1124.13V768.82ZM1168.02 845.61H1150.29V981.65H1168.02V845.61ZM1176.44 948H1194.17V981.65H1176.44V948ZM1220.33 913.63H1202.59V981.65H1220.33V913.63ZM1228.74 851.53H1246.47V981.65H1228.74V851.53ZM1272.62 774.94H1254.89V981.65H1272.62V774.94ZM1281.05 839.49H1298.78V981.65H1281.05V839.49ZM1324.93 863.97H1307.2V981.65H1324.93V863.97ZM1333.35 824.47H1351.09V981.65H1333.35V824.47ZM1377.23 892.91H1359.5V981.65H1377.23V892.91ZM1385.66 929.4H1403.39V981.65H1385.66V929.4ZM1429.54 857.3H1411.81V981.65H1429.54V857.3ZM1437.96 782.73H1455.69V981.65H1437.96V782.73ZM1481.84 900.55H1464.11V981.65H1481.84V900.55ZM1490.26 863.97H1508V981.65H1490.26V863.97Z" fill="#212C67"/>
<path fill-rule="evenodd" clip-rule="evenodd" d="M1873.71 741H1855.98V981.65H1873.71V741ZM1716.8 758.58H1699.07V981.65H1716.8V758.58ZM1559.88 801.1H1542.15V981.65H1559.88V801.1ZM1533.73 930.19H1516V981.65H1533.73V930.19ZM1568.3 877.15H1586.03V981.65H1568.3V877.15ZM1612.19 824.47H1594.46V981.65H1612.19V824.47ZM1620.61 886.21H1638.34V981.65H1620.61V886.21ZM1664.49 834.48H1646.76V981.65H1664.49V834.48ZM1672.91 808.9H1690.64V981.65H1672.91V808.9ZM1725.22 780.51H1742.95V981.65H1725.22V780.51ZM1769.1 819.46H1751.37V981.65H1769.1V819.46ZM1777.52 867.31H1795.25V981.65H1777.52V867.31ZM1821.41 905.71H1803.67V981.65H1821.41V905.71ZM1829.83 859.52H1847.56V981.65H1829.83V859.52ZM1882.13 768.82H1899.87V981.65H1882.13V768.82ZM1926.02 845.61H1908.29V981.65H1926.02V845.61ZM1934.44 948H1952.17V981.65H1934.44V948ZM1978.33 913.63H1960.59V981.65H1978.33V913.63ZM1986.74 851.53H2004.47V981.65H1986.74V851.53ZM2030.62 774.94H2012.89V981.65H2030.62V774.94ZM2039.05 839.49H2056.78V981.65H2039.05V839.49ZM2082.93 863.97H2065.2V981.65H2082.93V863.97ZM2091.35 824.47H2109.09V981.65H2091.35V824.47ZM2135.23 892.91H2117.5V981.65H2135.23V892.91ZM2143.66 929.4H2161.39V981.65H2143.66V929.4ZM2187.54 857.3H2169.81V981.65H2187.54V857.3ZM2195.96 782.73H2213.69V981.65H2195.96V782.73ZM2239.84 900.55H2222.11V981.65H2239.84V900.55ZM2248.26 863.97H2266V981.65H2248.26V863.97Z" fill="#212C67"/>
<path fill-rule="evenodd" clip-rule="evenodd" d="M356.74 837.49H346.07V981.65H356.74V837.49ZM110.11 848.02H120.78V981.65H110.11V848.02ZM78.6504 887.49H89.3204V981.65H78.6504V887.49ZM0 902.16H10.67V981.65H0V902.16ZM15.7305 950.82H26.4005V981.65H15.7305V950.82ZM42.13 928.99H31.46V981.65H42.13V928.99ZM47.1904 903.7H57.8604V981.65H47.1904V903.7ZM73.5899 919.05H62.9199V981.65H73.5899V919.05ZM105.05 929.91H94.3799V981.65H105.05V929.91ZM136.51 898.16H125.84V981.65H136.51V898.16ZM141.57 950.82H152.24V981.65H141.57V950.82ZM167.97 873.49H157.3V981.65H167.97V873.49ZM173.04 919.05H183.71V981.65H173.04V919.05ZM199.44 887.49H188.77V981.65H199.44V887.49ZM204.5 924.48H215.17V981.65H204.5V924.48ZM230.9 893.49H220.23V981.65H230.9V893.49ZM235.96 878.17H246.63V981.65H235.96V878.17ZM262.36 848.02H251.69V981.65H262.36V848.02ZM267.42 861.16H278.09V981.65H267.42V861.16ZM293.82 884.49H283.15V981.65H293.82V884.49ZM298.88 913.16H309.55V981.65H298.88V913.16ZM325.28 936.16H314.61V981.65H325.28V936.16ZM330.34 908.49H341.01V981.65H330.34V908.49ZM361.8 854.16H372.47V981.65H361.8V854.16ZM388.2 900.16H377.53V981.65H388.2V900.16ZM393.26 961.49H403.93V981.65H393.26V961.49ZM419.66 940.9H408.99V981.65H419.66V940.9ZM424.72 903.7H435.39V981.65H424.72V903.7ZM451.12 857.82H440.45V981.65H451.12V857.82ZM456.18 896.49H466.85V981.65H456.18V896.49ZM482.58 911.16H471.91V981.65H482.58V911.16ZM487.64 887.49H498.31V981.65H487.64V887.49ZM514.05 928.49H503.38V981.65H514.05V928.49ZM519.11 950.35H529.78V981.65H519.11V950.35ZM545.51 907.16H534.84V981.65H545.51V907.16ZM550.57 862.49H561.24V981.65H550.57V862.49ZM576.97 933.07H566.3V981.65H576.97V933.07ZM582.03 911.16H592.7V981.65H582.03V911.16ZM608.43 894.49H597.76V981.65H608.43V894.49ZM613.49 848.02H624.16V981.65H613.49V848.02ZM639.89 913.16H629.22V981.65H639.89V913.16ZM644.95 890.49H655.62V981.65H644.95V890.49ZM671.35 944.4H660.68V981.65H671.35V944.4ZM676.41 924.92H687.08V981.65H676.41V924.92ZM702.81 898.82H692.14V981.65H702.81V898.82ZM707.87 848.02H718.54V981.65H707.87V848.02ZM734.27 908.49H723.6V981.65H734.27V908.49ZM739.33 888.82H750V981.65H739.33V888.82Z" fill="#233773"/>
<path fill-rule="evenodd" clip-rule="evenodd" d="M1114.74 837.49H1104.07V981.65H1114.74V837.49ZM868.11 848.02H878.78V981.65H868.11V848.02ZM836.65 887.49H847.32V981.65H836.65V887.49ZM758 902.16H768.67V981.65H758V902.16ZM773.73 950.82H784.4V981.65H773.73V950.82ZM800.13 928.99H789.46V981.65H800.13V928.99ZM805.19 903.7H815.86V981.65H805.19V903.7ZM831.59 919.05H820.92V981.65H831.59V919.05ZM863.05 929.91H852.38V981.65H863.05V929.91ZM894.51 898.16H883.84V981.65H894.51V898.16ZM899.57 950.82H910.24V981.65H899.57V950.82ZM925.97 873.49H915.3V981.65H925.97V873.49ZM931.04 919.05H941.71V981.65H931.04V919.05ZM957.44 887.49H946.77V981.65H957.44V887.49ZM962.5 924.48H973.17V981.65H962.5V924.48ZM988.9 893.49H978.23V981.65H988.9V893.49ZM993.96 878.17H1004.63V981.65H993.96V878.17ZM1020.36 848.02H1009.69V981.65H1020.36V848.02ZM1025.42 861.16H1036.09V981.65H1025.42V861.16ZM1051.82 884.49H1041.15V981.65H1051.82V884.49ZM1056.88 913.16H1067.55V981.65H1056.88V913.16ZM1083.28 936.16H1072.61V981.65H1083.28V936.16ZM1088.34 908.49H1099.01V981.65H1088.34V908.49ZM1119.8 854.16H1130.47V981.65H1119.8V854.16ZM1146.2 900.16H1135.53V981.65H1146.2V900.16ZM1151.26 961.49H1161.93V981.65H1151.26V961.49ZM1177.66 940.9H1166.99V981.65H1177.66V940.9ZM1182.72 903.7H1193.39V981.65H1182.72V903.7ZM1209.12 857.82H1198.45V981.65H1209.12V857.82ZM1214.18 896.49H1224.85V981.65H1214.18V896.49ZM1240.58 911.16H1229.91V981.65H1240.58V911.16ZM1245.64 887.49H1256.31V981.65H1245.64V887.49ZM1272.05 928.49H1261.38V981.65H1272.05V928.49ZM1277.11 950.35H1287.78V981.65H1277.11V950.35ZM1303.51 907.16H1292.84V981.65H1303.51V907.16ZM1308.57 862.49H1319.24V981.65H1308.57V862.49ZM1334.97 933.07H1324.3V981.65H1334.97V933.07ZM1340.03 911.16H1350.7V981.65H1340.03V911.16ZM1366.43 894.49H1355.76V981.65H1366.43V894.49ZM1371.49 848.02H1382.16V981.65H1371.49V848.02ZM1397.89 913.16H1387.22V981.65H1397.89V913.16ZM1402.95 890.49H1413.62V981.65H1402.95V890.49ZM1429.35 944.4H1418.68V981.65H1429.35V944.4ZM1434.41 924.92H1445.08V981.65H1434.41V924.92ZM1460.81 898.82H1450.14V981.65H1460.81V898.82ZM1465.87 848.02H1476.54V981.65H1465.87V848.02ZM1492.27 908.49H1481.6V981.65H1492.27V908.49ZM1497.33 888.82H1508V981.65H1497.33V888.82Z" fill="#233773"/>
<path fill-rule="evenodd" clip-rule="evenodd" d="M1872.74 837.49H1862.07V981.65H1872.74V837.49ZM1626.11 848.02H1636.78V981.65H1626.11V848.02ZM1594.65 887.49H1605.32V981.65H1594.65V887.49ZM1516 902.16H1526.67V981.65H1516V902.16ZM1531.73 950.82H1542.4V981.65H1531.73V950.82ZM1558.13 928.99H1547.46V981.65H1558.13V928.99ZM1563.19 903.7H1573.86V981.65H1563.19V903.7ZM1589.59 919.05H1578.92V981.65H1589.59V919.05ZM1621.05 929.91H1610.38V981.65H1621.05V929.91ZM1652.51 898.16H1641.84V981.65H1652.51V898.16ZM1657.57 950.82H1668.24V981.65H1657.57V950.82ZM1683.97 873.49H1673.3V981.65H1683.97V873.49ZM1689.04 919.05H1699.71V981.65H1689.04V919.05ZM1715.44 887.49H1704.77V981.65H1715.44V887.49ZM1720.5 924.48H1731.17V981.65H1720.5V924.48ZM1746.9 893.49H1736.23V981.65H1746.9V893.49ZM1751.96 878.17H1762.63V981.65H1751.96V878.17ZM1778.36 848.02H1767.69V981.65H1778.36V848.02ZM1783.42 861.16H1794.09V981.65H1783.42V861.16ZM1809.82 884.49H1799.15V981.65H1809.82V884.49ZM1814.88 913.16H1825.55V981.65H1814.88V913.16ZM1841.28 936.16H1830.61V981.65H1841.28V936.16ZM1846.34 908.49H1857.01V981.65H1846.34V908.49ZM1877.8 854.16H1888.47V981.65H1877.8V854.16ZM1904.2 900.16H1893.53V981.65H1904.2V900.16ZM1909.26 961.49H1919.93V981.65H1909.26V961.49ZM1935.66 940.9H1924.99V981.65H1935.66V940.9ZM1940.72 903.7H1951.39V981.65H1940.72V903.7ZM1967.12 857.82H1956.45V981.65H1967.12V857.82ZM1972.18 896.49H1982.85V981.65H1972.18V896.49ZM1998.58 911.16H1987.91V981.65H1998.58V911.16ZM2003.64 887.49H2014.31V981.65H2003.64V887.49ZM2030.05 928.49H2019.38V981.65H2030.05V928.49ZM2035.11 950.35H2045.78V981.65H2035.11V950.35ZM2061.51 907.16H2050.84V981.65H2061.51V907.16ZM2066.57 862.49H2077.24V981.65H2066.57V862.49ZM2092.97 933.07H2082.3V981.65H2092.97V933.07ZM2098.03 911.16H2108.7V981.65H2098.03V911.16ZM2124.43 894.49H2113.76V981.65H2124.43V894.49ZM2129.49 848.02H2140.16V981.65H2129.49V848.02ZM2155.89 913.16H2145.22V981.65H2155.89V913.16ZM2160.95 890.49H2171.62V981.65H2160.95V890.49ZM2187.35 944.4H2176.68V981.65H2187.35V944.4ZM2192.41 924.92H2203.08V981.65H2192.41V924.92ZM2218.81 898.82H2208.14V981.65H2218.81V898.82ZM2223.87 848.02H2234.54V981.65H2223.87V848.02ZM2250.27 908.49H2239.6V981.65H2250.27V908.49ZM2255.33 888.82H2266V981.65H2255.33V888.82Z" fill="#233773"/>
</g>
</svg>
