<svg width="20" height="20" viewBox="0 0 20 20" fill="none" xmlns="http://www.w3.org/2000/svg">
<path d="M9.136 10.1166L8.54023 12.5319C9.27565 12.7166 11.544 13.4532 11.8792 12.0907C12.2296 10.6697 9.8714 10.3022 9.136 10.1166ZM9.94862 6.82043L9.40852 9.01099C10.021 9.16541 11.9088 9.79504 12.2147 8.55573C12.5334 7.26294 10.5611 6.97479 9.94868 6.82043H9.94862ZM10 0C8.02219 0 6.08879 0.58649 4.4443 1.6853C2.79981 2.78412 1.51809 4.3459 0.761209 6.17317C0.00433284 8.00043 -0.193701 10.0111 0.192152 11.9509C0.578004 13.8907 1.53041 15.6725 2.92894 17.0711C4.32746 18.4696 6.10929 19.422 8.0491 19.8079C9.98891 20.1937 11.9996 19.9957 13.8268 19.2388C15.6541 18.4819 17.2159 17.2002 18.3147 15.5557C19.4135 13.9112 20 11.9778 20 10C20 8.68678 19.7413 7.38642 19.2388 6.17317C18.7363 4.95991 17.9997 3.85752 17.0711 2.92893C16.1425 2.00035 15.0401 1.26375 13.8268 0.761205C12.6136 0.258658 11.3132 0 10 0ZM14.358 8.57538C14.337 8.95905 14.1898 9.32502 13.9392 9.61637C13.6887 9.90772 13.3489 10.1081 12.9728 10.1864C13.22 10.287 13.4437 10.4378 13.6298 10.6292C13.8159 10.8206 13.9603 11.0485 14.054 11.2985C14.1476 11.5485 14.1885 11.8152 14.1739 12.0817C14.1594 12.3483 14.0898 12.6089 13.9696 12.8473C13.3841 14.5394 11.993 14.6823 10.143 14.3282L9.69405 16.1479L8.6092 15.8744L9.05232 14.0791C8.77113 14.0085 8.48377 13.9335 8.18775 13.8523L7.7431 15.6559L6.65948 15.3825L7.10848 13.5594C6.85506 13.4938 6.59768 13.4241 6.33504 13.3575L4.9233 13.0016L5.46187 11.7457C5.46187 11.7457 6.26119 11.9607 6.25039 11.9448C6.30014 11.9606 6.35255 11.9665 6.40457 11.9619C6.45659 11.9574 6.5072 11.9426 6.55345 11.9183C6.5997 11.8941 6.64067 11.8609 6.674 11.8207C6.70733 11.7805 6.73234 11.7341 6.74758 11.6841L7.965 6.74634C7.98063 6.59506 7.93651 6.44366 7.84207 6.32444C7.74764 6.20522 7.61035 6.12763 7.4595 6.10822C7.4765 6.09668 6.6715 5.9101 6.6715 5.9101L6.96013 4.73822L8.45623 5.11603L8.455 5.1217C8.67991 5.17822 8.91166 5.23199 9.14775 5.28638L9.59239 3.4845L10.6766 3.75793L10.241 5.52448C10.5321 5.59167 10.825 5.65948 11.1102 5.73138L11.5428 3.97638L12.6277 4.24982L12.1833 6.05231C13.553 6.52948 14.5548 7.24481 14.358 8.57538Z" fill="#7B47E1"/>
</svg>
