<svg width="22" height="20" viewBox="0 0 22 20" fill="none" xmlns="http://www.w3.org/2000/svg">
<path d="M21.2873 6.52533C21.2873 6.4538 21.2963 6.38226 21.2963 6.31073C21.2963 3.44047 18.8578 0.963638 15.8413 0.963638C13.6376 0.963638 11.741 2.36747 10.883 4.1558C10.025 2.36747 8.12843 0.963638 5.92475 0.963638C2.90823 0.963638 0.469727 3.44941 0.469727 6.31073C0.469727 6.38226 0.469725 6.4538 0.478757 6.52533C0.478757 6.52533 0.171687 9.93209 4.00104 13.6518C5.74412 15.3775 7.68589 17.0228 10.8921 19.598C14.0982 17.0228 16.04 15.3775 17.7831 13.6518C21.5944 9.93209 21.2873 6.52533 21.2873 6.52533Z" fill="#7B47E1"/>
</svg>
