<svg width="16" height="16" viewBox="0 0 16 16" fill="none" xmlns="http://www.w3.org/2000/svg">
<path d="M14.8941 5.75733C14.5029 5.4122 13.9248 5.38344 13.5021 5.68831L12.947 6.08808L12.7974 4.89451C12.4753 2.47574 10.4132 0.666687 7.97138 0.666687C5.5296 0.666687 3.46745 2.47574 3.14821 4.89739L2.99578 6.09383L2.43207 5.68831C2.01216 5.38344 1.43407 5.4122 1.04292 5.75733C0.651779 6.10246 0.553993 6.67192 0.804211 7.12922L2.48096 10.1836L2.00928 13.9398C1.92875 14.5897 2.5845 15.0787 3.18272 14.817L4.64664 14.1756C4.8681 14.0778 5.12119 14.0807 5.34265 14.1842L7.62913 15.2541C7.84771 15.3548 8.09793 15.3605 8.31938 15.2656L10.859 14.1727C11.0833 14.0778 11.3364 14.0807 11.555 14.1871L12.7255 14.7479C13.3266 15.0355 14.0083 14.5437 13.9248 13.8822L13.4589 10.1721L15.1299 7.12922C15.383 6.6748 15.2852 6.10246 14.8941 5.75733ZM9.76317 5.3403C10.2722 5.3403 10.6864 5.75446 10.6864 6.26352C10.6864 6.77259 10.2722 7.18674 9.76317 7.18674C9.25411 7.18674 8.83995 6.77259 8.83995 6.26352C8.83995 5.75446 9.25411 5.3403 9.76317 5.3403ZM6.17384 5.3403C6.6829 5.3403 7.09705 5.75446 7.09705 6.26352C7.09705 6.77259 6.6829 7.18674 6.17384 7.18674C5.66477 7.18674 5.25062 6.77259 5.25062 6.26352C5.25062 5.75446 5.66189 5.3403 6.17384 5.3403ZM10.9567 9.62277C10.9567 10.454 10.2837 11.127 9.45256 11.127C8.62712 11.127 7.957 10.4626 7.94837 9.63715H5.46345C5.19597 9.63715 4.98027 9.42145 4.98027 9.15397C4.98027 9.02167 5.03491 8.90088 5.12119 8.8146C5.20748 8.72831 5.32827 8.67367 5.46345 8.67367H10.4736C10.741 8.67367 10.9567 8.88937 10.9567 9.15685V9.62277Z" fill="white"/>
</svg>
