<svg width="14" height="13" viewBox="0 0 14 13" fill="none" xmlns="http://www.w3.org/2000/svg">
<path d="M6.10229 1.14985C6.46896 0.40666 7.52861 0.406392 7.89565 1.1494L9.0338 3.45335C9.1795 3.74829 9.46095 3.95271 9.78649 4.00004L12.3273 4.36945C13.1476 4.48872 13.475 5.49704 12.8811 6.07543L11.0414 7.86711C10.8054 8.09693 10.6978 8.42821 10.7536 8.75285L11.1885 11.2839C11.3289 12.1007 10.4717 12.7239 9.73792 12.3385L7.46368 11.1439C7.17244 10.991 6.8246 10.991 6.5334 11.1441L4.26109 12.3384C3.52756 12.724 2.67029 12.1012 2.81018 11.2844L3.24384 8.7523C3.29939 8.42797 3.19182 8.09706 2.95618 7.86738L1.11755 6.0753C0.524027 5.4968 0.851465 4.48884 1.67166 4.36959L4.21311 4.00009C4.53883 3.95273 4.82039 3.74812 4.96602 3.45294L6.10229 1.14985Z" fill="white"/>
</svg>
