<svg width="24" height="24" viewBox="0 0 24 24" fill="none" xmlns="http://www.w3.org/2000/svg">
<rect width="24" height="24" rx="2" fill="#E6E4FF"/>
<path d="M9.6696 11.0424L12 8.712L14.3316 11.0436L15.6876 9.6876L12 6L8.3136 9.6864L9.6696 11.0424ZM6 12L7.356 10.644L8.712 12L7.356 13.356L6 12ZM9.6696 12.9576L12 15.288L14.3316 12.9564L15.6876 14.3118L12 18L8.3136 14.3136L8.3118 14.3118L9.6696 12.9576ZM15.288 12L16.644 10.644L18 12L16.644 13.356L15.288 12ZM13.3752 11.9988H13.3764V12L12 13.3764L10.6254 12.0024L10.623 12L10.6254 11.9982L10.866 11.757L10.983 11.64L12 10.6236L13.3758 11.9994L13.3752 11.9988Z" fill="#7265FD"/>
</svg>
