<svg width="20" height="20" viewBox="0 0 20 20" fill="none" xmlns="http://www.w3.org/2000/svg">
<path fill-rule="evenodd" clip-rule="evenodd" d="M10 20C15.5228 20 20 15.5228 20 10C20 4.47715 15.5228 0 10 0C4.47715 0 0 4.47715 0 10C0 15.5228 4.47715 20 10 20ZM12.7232 7.76494C13.0156 7.61874 13.3446 7.61874 13.6004 7.76494L16.5613 9.48292C16.8538 9.66565 17 9.95812 17 10.2505V13.7231C17 14.052 16.8172 14.3445 16.5613 14.4907L13.6005 16.2086C13.3081 16.3548 12.9791 16.3548 12.7232 16.2086L9.7624 14.4907C9.46993 14.3079 9.32374 14.0155 9.32374 13.7231V12.5168L10.7128 11.7126V12.8824C10.7128 13.2113 10.8956 13.5037 11.1515 13.6499L12.7232 14.5638C13.0156 14.71 13.3446 14.71 13.6005 14.5638L15.1357 13.6499C15.4282 13.4672 15.5744 13.1747 15.5744 12.8824V11.0547C15.5744 10.7258 15.3916 10.4333 15.1357 10.2871L13.564 9.37326C13.2716 9.22706 12.9426 9.22706 12.6867 9.37326L10.6763 10.543L9.28721 11.3472L7.27676 12.5169C6.98436 12.6631 6.65537 12.6631 6.3995 12.5169L3.43866 10.7989C3.1462 10.6162 3 10.3237 3 10.0313V6.59529C3 6.3029 3.14627 6.01043 3.43866 5.86423L6.43603 4.10965C6.72843 3.96345 7.05743 3.96345 7.31329 4.10965L10.2375 5.82763C10.53 6.01036 10.6762 6.30282 10.6762 6.59522V7.838L9.28713 8.6422V7.43594C9.28713 7.10702 9.10433 6.81455 8.84847 6.66835L7.27669 5.71796C6.98429 5.57177 6.65529 5.57177 6.39943 5.71796L4.82765 6.63182C4.53518 6.81455 4.38898 7.10702 4.38898 7.39941V9.22706C4.38898 9.55599 4.57178 9.84845 4.82765 9.99465L6.39943 10.945C6.69182 11.0912 7.02082 11.0912 7.27669 10.945L9.28713 9.73879L10.6762 8.9712L12.7232 7.76494Z" fill="#7B47E1"/>
</svg>
