<svg viewBox="0 0 24 24" fill="none" xmlns="http://www.w3.org/2000/svg">
<path d="M13 7H11V9H13V7Z" fill="#9E26D9" stroke="#9E26D9" stroke-width="0.12"/>
<path d="M13 9H11V11H13V9Z" fill="#9E26D9" stroke="#9E26D9" stroke-width="0.12"/>
<path d="M13 11H11V13H13V11Z" fill="#9E26D9" stroke="#9E26D9" stroke-width="0.12"/>
<path d="M13 13H11V15H13V13Z" fill="#9E26D9" stroke="#9E26D9" stroke-width="0.12"/>
<path d="M13 15H11V17H13V15Z" fill="#9E26D9" stroke="#9E26D9" stroke-width="0.12"/>
<path d="M11 7H9V9H11V7Z" fill="#9E26D9" stroke="#9E26D9" stroke-width="0.12"/>
<path d="M15 7H13V9H15V7Z" fill="#9E26D9" stroke="#9E26D9" stroke-width="0.12"/>
<path d="M11 9H9V11H11V9Z" fill="#9E26D9" stroke="#9E26D9" stroke-width="0.12"/>
<path d="M15 9H13V11H15V9Z" fill="#9E26D9" stroke="#9E26D9" stroke-width="0.12"/>
<path d="M11 11H9V13H11V11Z" fill="#9E26D9" stroke="#9E26D9" stroke-width="0.12"/>
<path d="M15 11H13V13H15V11Z" fill="#9E26D9" stroke="#9E26D9" stroke-width="0.12"/>
<path d="M9 9H7V11H9V9Z" fill="#9E26D9" stroke="#9E26D9" stroke-width="0.12"/>
<path d="M17 9H15V11H17V9Z" fill="#9E26D9" stroke="#9E26D9" stroke-width="0.12"/>
<path d="M9 11H7V13H9V11Z" fill="#9E26D9" stroke="#9E26D9" stroke-width="0.12"/>
<path d="M17 11H15V13H17V11Z" fill="#9E26D9" stroke="#9E26D9" stroke-width="0.12"/>
</svg>
