<svg width="110" height="99" viewBox="0 0 110 99" fill="none" xmlns="http://www.w3.org/2000/svg">
<path opacity="0.3" d="M0 60.6537C0 55.4362 0.326095 48.9143 0.978287 41.088C1.95657 33.2617 3.91315 26.9029 6.848 22.0114C9.78286 17.12 13.533 13.0438 18.0983 9.78287C22.9897 6.19581 28.2072 2.93486 33.7509 0L46.4686 14.6743C42.5554 16.3048 38.6423 18.4244 34.7291 21.0332C30.816 23.6419 27.8811 26.4137 25.9246 29.3486C23.6419 32.9356 22.3375 36.8488 22.0114 41.088C21.6853 45.0011 21.5223 49.0773 21.5223 53.3166H46.9577V98.8069H0V60.6537ZM62.6103 60.6537C62.6103 55.4362 62.9364 48.9143 63.5886 41.088C64.5669 33.2617 66.5234 26.9029 69.4583 22.0114C72.3931 17.12 76.1432 13.0438 80.7086 9.78287C85.6 6.19581 90.8175 2.93486 96.3611 0L109.079 14.6743C105.166 16.3048 101.253 18.4244 97.3394 21.0332C93.4263 23.6419 90.4914 26.4137 88.5349 29.3486C86.2522 32.9356 84.9478 36.8488 84.6217 41.088C84.2956 45.0011 84.1326 49.0773 84.1326 53.3166H109.568V98.8069H62.6103V60.6537Z" fill="#C6C6D7"/>
</svg>
