<svg width="12" height="12" viewBox="0 0 12 12" fill="none" xmlns="http://www.w3.org/2000/svg">
<path d="M0.756836 11.3145C0.996094 11.5469 1.39258 11.5469 1.625 11.3145L6 6.93945L10.375 11.3145C10.6074 11.5469 11.0107 11.5537 11.2432 11.3145C11.4756 11.0752 11.4756 10.6855 11.2432 10.4531L6.86816 6.07129L11.2432 1.69629C11.4756 1.46387 11.4824 1.06738 11.2432 0.834961C11.0039 0.595703 10.6074 0.595703 10.375 0.834961L6 5.20996L1.625 0.834961C1.39258 0.595703 0.989258 0.588867 0.756836 0.834961C0.524414 1.07422 0.524414 1.46387 0.756836 1.69629L5.13184 6.07129L0.756836 10.4531C0.524414 10.6855 0.517578 11.082 0.756836 11.3145Z" fill="#D1D1D6"/>
</svg>
