<svg width="22" height="20" viewBox="0 0 22 20" fill="none" xmlns="http://www.w3.org/2000/svg">
<path d="M3.48047 19.1777H18.5098C20.1699 19.1777 21.2051 17.9863 21.2051 16.4824C21.2051 16.0332 21.0879 15.5742 20.8438 15.1543L13.3145 2.03906C12.8066 1.15039 11.9082 0.671875 11 0.671875C10.082 0.671875 9.18359 1.15039 8.67578 2.03906L1.14648 15.1641C0.902344 15.584 0.785156 16.0332 0.785156 16.4824C0.785156 17.9863 1.82031 19.1777 3.48047 19.1777ZM3.49023 17.6445C2.81641 17.6445 2.36719 17.0879 2.36719 16.4824C2.36719 16.3066 2.39648 16.1016 2.49414 15.8965L10.0137 2.78125C10.2285 2.41016 10.6191 2.23438 11 2.23438C11.3809 2.23438 11.752 2.40039 11.9668 2.78125L19.4766 15.9062C19.584 16.1016 19.6328 16.3066 19.6328 16.4824C19.6328 17.0879 19.1641 17.6445 18.4902 17.6445H3.49023ZM11 12.5957C11.4688 12.5957 11.7324 12.3223 11.7422 11.8145L11.8887 6.66797C11.8984 6.16992 11.5078 5.79883 10.9902 5.79883C10.4629 5.79883 10.0918 6.16016 10.1016 6.6582L10.2285 11.8145C10.2383 12.3125 10.5117 12.5957 11 12.5957ZM11 15.7695C11.5566 15.7695 12.0547 15.3203 12.0547 14.7539C12.0547 14.1777 11.5664 13.7383 11 13.7383C10.4238 13.7383 9.94531 14.1875 9.94531 14.7539C9.94531 15.3105 10.4336 15.7695 11 15.7695Z" fill="#FFB441"/>
</svg>
