<svg width="24" height="24" viewBox="0 0 24 24" fill="none" xmlns="http://www.w3.org/2000/svg">
<path d="M11.1016 3.81654C11.4683 3.07335 12.5279 3.07308 12.895 3.81608L15.1671 8.4156C15.3128 8.71054 15.5943 8.91496 15.9198 8.96229L20.994 9.70003C21.8143 9.81931 22.1417 10.8276 21.5478 11.406L17.8737 14.9843C17.6377 15.2141 17.5301 15.5454 17.5859 15.87L18.4544 20.9243C18.5947 21.7411 17.7375 22.3643 17.0038 21.9789L12.463 19.5938C12.1718 19.4408 11.8239 19.4408 11.5327 19.5939L6.99529 21.9788C6.26176 22.3643 5.4045 21.7416 5.54439 20.9248L6.41019 15.8695C6.46573 15.5451 6.35817 15.2142 6.12252 14.9845L2.45092 11.4059C1.8574 10.8274 2.18484 9.81943 3.00503 9.70018L8.07987 8.96234C8.40559 8.91498 8.68715 8.71037 8.83278 8.41519L11.1016 3.81654Z" fill="#FCCA19"/>
</svg>
