<svg width="1920" height="754" viewBox="0 0 1920 754" fill="none" xmlns="http://www.w3.org/2000/svg">
<mask id="mask0_70_8" style="mask-type:alpha" maskUnits="userSpaceOnUse" x="0" y="0" width="1920" height="754">
<rect width="1920" height="753.89" fill="#202763"/>
</mask>
<g mask="url(#mask0_70_8)">
<g opacity="0.4">
<g opacity="0.3">
<path d="M1228.49 324.741C1228.49 324.741 1505.26 -191.479 2102.35 77.7893" stroke="url(#paint0_linear_70_8)" stroke-width="0.25" stroke-miterlimit="10"/>
<path d="M1228.49 324.741C1228.49 324.741 1300.65 205.35 1448.25 119.131C1593.3 34.2223 1812.9 -20.8692 2102.32 95.4723" stroke="url(#paint1_linear_70_8)" stroke-width="0.25" stroke-miterlimit="10"/>
<path d="M1228.49 324.741C1228.49 324.741 1302.48 217.149 1451.48 140.259C1597.71 64.4967 1819.61 13.9784 2102.32 113.094" stroke="url(#paint2_linear_70_8)" stroke-width="0.25" stroke-miterlimit="10"/>
<path d="M1228.49 324.741C1228.49 324.741 1304.31 228.948 1454.71 161.417C1602.13 94.8015 1826.31 48.8564 2102.32 130.747" stroke="url(#paint3_linear_70_8)" stroke-width="0.25" stroke-miterlimit="10"/>
<path d="M1228.49 324.741C1228.49 324.741 1306.13 240.716 1457.94 182.576C1606.55 125.137 1832.98 83.7345 2102.32 148.43" stroke="url(#paint4_linear_70_8)" stroke-width="0.25" stroke-miterlimit="10"/>
<path d="M1228.49 324.741C1228.49 324.741 1307.96 252.515 1461.17 203.734C1610.97 155.442 1839.69 118.613 2102.32 166.082" stroke="url(#paint5_linear_70_8)" stroke-width="0.25" stroke-miterlimit="10"/>
<path d="M1228.49 324.741C1228.49 324.741 1309.88 264.619 1464.4 224.893C1615.48 186.052 1846.39 153.491 2102.32 183.734" stroke="url(#paint6_linear_70_8)" stroke-width="0.25" stroke-miterlimit="10"/>
<path d="M1228.49 324.741C1228.49 324.741 1311.71 276.417 1467.66 246.021C1619.9 216.356 1853.12 188.369 2102.35 201.356" stroke="url(#paint7_linear_70_8)" stroke-width="0.25" stroke-miterlimit="10"/>
<path d="M1228.49 324.741C1228.49 324.741 1313.51 288.216 1470.89 267.18C1624.31 246.692 1859.8 223.247 2102.35 219.039" stroke="url(#paint8_linear_70_8)" stroke-width="0.25" stroke-miterlimit="10"/>
<path d="M1228.49 324.741C1228.49 324.741 1315.34 299.984 1474.12 288.338C1628.7 276.997 1866.5 258.125 2102.35 236.692" stroke="url(#paint9_linear_70_8)" stroke-width="0.25" stroke-miterlimit="10"/>
<path d="M1228.49 324.741C1228.49 324.741 1317.13 311.753 1477.35 309.497C1633.09 307.302 1873.2 293.003 2102.35 254.344" stroke="url(#paint10_linear_70_8)" stroke-width="0.25" stroke-miterlimit="10"/>
<path d="M1228.49 324.741C1228.49 324.741 1318.96 323.216 1480.58 330.625C1637.51 337.271 1879.88 327.85 2102.35 271.997" stroke="url(#paint11_linear_70_8)" stroke-width="0.25" stroke-miterlimit="10"/>
<path d="M1228.49 324.741C1228.49 324.741 1320.79 335.015 1483.81 351.783C1641.93 367.576 1886.58 362.728 2102.35 289.649" stroke="url(#paint12_linear_70_8)" stroke-width="0.25" stroke-miterlimit="10"/>
<path d="M1228.49 324.741C1228.49 324.741 1322.62 346.783 1487.04 372.942C1646.35 397.881 1893.29 397.606 2102.35 307.302" stroke="url(#paint13_linear_70_8)" stroke-width="0.25" stroke-miterlimit="10"/>
<path d="M1228.49 324.741C1228.49 324.741 1324.45 358.582 1490.27 394.1C1650.76 428.186 1899.96 432.484 2102.35 324.984" stroke="url(#paint14_linear_70_8)" stroke-width="0.25" stroke-miterlimit="10"/>
<path d="M1228.49 324.741C1228.49 324.741 1326.27 370.35 1493.5 415.228C1655.18 458.491 1906.66 467.332 2102.35 342.606" stroke="url(#paint15_linear_70_8)" stroke-width="0.25" stroke-miterlimit="10"/>
<path d="M1228.49 324.741C1228.49 324.741 1328.1 382.149 1496.73 436.387C1659.6 488.795 1913.37 502.21 2102.35 360.259" stroke="url(#paint16_linear_70_8)" stroke-width="0.25" stroke-miterlimit="10"/>
</g>
<g opacity="0.8">
<path d="M-183 283.826C-183 283.826 89.2612 135.137 687.2 440.35C1006.75 603.46 1162.22 419.619 1315.91 420.015C1547.5 420.594 1674.47 656.814 2102.32 388.521" stroke="url(#paint17_linear_70_8)" stroke-width="0.5" stroke-miterlimit="10"/>
<path d="M-183 310.259C-183 310.259 106.173 122.637 698.718 421.387C1030.25 586.875 1171.88 437.698 1332.61 436.783C1566.36 436.052 1701.19 645.076 2102.32 393.552" stroke="url(#paint18_linear_70_8)" stroke-width="0.5" stroke-miterlimit="10"/>
<path d="M-183 336.692C-183 336.692 122.079 112.302 710.267 402.393C1053.19 571.509 1181.57 455.381 1349.34 453.552C1585.22 450.991 1727.98 633.338 2102.38 398.582" stroke="url(#paint19_linear_70_8)" stroke-width="0.5" stroke-miterlimit="10"/>
<path d="M-183 363.094C-183 363.094 138.655 100.533 721.785 383.369C1076.44 555.381 1191.23 473.277 1366.04 470.289C1604.08 466.234 1754.73 621.539 2102.38 403.552" stroke="url(#paint20_linear_70_8)" stroke-width="0.5" stroke-miterlimit="10"/>
<path d="M-183 389.527C-183 389.527 155.323 88.643 733.303 364.405C1099.75 539.253 1200.89 491.265 1382.71 487.088C1622.91 481.6 1781.42 609.832 2102.35 408.612" stroke="url(#paint21_linear_70_8)" stroke-width="0.5" stroke-miterlimit="10"/>
<path d="M-183 415.96C-183 415.96 172.082 76.5699 744.821 345.411C1123.12 523.003 1210.54 509.222 1399.41 503.856C1641.74 496.966 1808.18 598.064 2102.35 413.613" stroke="url(#paint22_linear_70_8)" stroke-width="0.5" stroke-miterlimit="10"/>
<path d="M-183 442.363C-183 442.363 188.933 64.2832 756.339 326.387C1146.52 506.631 1220.2 527.21 1416.1 520.594C1660.61 512.363 1834.93 586.295 2102.35 418.612" stroke="url(#paint23_linear_70_8)" stroke-width="0.5" stroke-miterlimit="10"/>
<path d="M-183 468.795C-183 468.795 205.844 51.9052 767.857 307.423C1169.96 490.228 1229.86 545.259 1432.8 537.393C1679.47 527.85 1861.69 574.558 2102.35 423.643" stroke="url(#paint24_linear_70_8)" stroke-width="0.5" stroke-miterlimit="10"/>
<path d="M-183 495.228C-183 495.228 222.847 39.4052 779.406 288.43C1193.48 473.704 1239.55 563.308 1449.5 554.161C1698.3 543.308 1888.41 562.82 2102.35 428.673" stroke="url(#paint25_linear_70_8)" stroke-width="0.5" stroke-miterlimit="10"/>
<path d="M-183 521.631C-183 521.631 239.881 26.7223 790.924 269.405C1217 457.058 1249.21 581.356 1466.2 570.899C1717.16 558.795 1915.16 551.021 2102.35 433.643" stroke="url(#paint26_linear_70_8)" stroke-width="0.5" stroke-miterlimit="10"/>
<path d="M-183 548.064C-183 548.064 256.975 13.9479 802.442 250.442C1240.59 440.381 1258.87 599.497 1482.9 587.698C1736.02 574.375 1941.92 539.314 2102.35 438.704" stroke="url(#paint27_linear_70_8)" stroke-width="0.5" stroke-miterlimit="10"/>
<path d="M-183 574.497C-183 574.497 274.1 1.08207 813.961 231.448C1264.2 423.552 1268.56 617.637 1499.6 604.466C1754.88 589.924 1968.64 527.546 2102.35 443.704" stroke="url(#paint28_linear_70_8)" stroke-width="0.5" stroke-miterlimit="10"/>
<path d="M-183 600.899C-183 600.899 291.256 -11.9058 825.479 212.454C1287.85 406.631 1278.22 635.808 1516.26 621.234C1773.72 605.503 1995.36 515.808 2102.32 448.734" stroke="url(#paint29_linear_70_8)" stroke-width="0.5" stroke-miterlimit="10"/>
<path d="M-183 627.332C-183 627.332 308.441 -24.9851 836.997 193.46C1311.56 389.588 1287.91 654.436 1532.96 638.003C1792.61 621.6 2022.12 504.039 2102.32 453.734" stroke="url(#paint30_linear_70_8)" stroke-width="0.5" stroke-miterlimit="10"/>
<path d="M-183 653.765C-183 653.765 325.688 -38.1253 848.546 174.466C1335.32 372.423 1297.63 672.515 1549.69 654.771C1811.5 637.058 2048.87 492.302 2102.38 458.765" stroke="url(#paint31_linear_70_8)" stroke-width="0.5" stroke-miterlimit="10"/>
<path d="M-183 680.167C-183 680.167 343.27 -52.2716 860.064 155.472C1359.46 354.314 1307.29 690.564 1566.39 671.539C1830.33 652.515 2075.63 480.533 2102.38 463.765" stroke="url(#paint32_linear_70_8)" stroke-width="0.5" stroke-miterlimit="10"/>
<path d="M-183 706.6C-183 706.6 360.212 -64.7411 871.582 136.478C1382.95 337.698 1316.95 708.643 1583.06 688.308C1849.16 667.972 2102.35 468.795 2102.35 468.795" stroke="url(#paint33_linear_70_8)" stroke-width="0.5" stroke-miterlimit="10"/>
</g>
<g opacity="0.8">
<path d="M-183 289.436C-183 289.436 89.2612 140.747 687.2 445.96C1006.75 609.07 1162.22 425.228 1315.91 425.625C1547.5 426.204 1674.47 662.423 2102.32 394.131" stroke="url(#paint34_linear_70_8)" stroke-width="0.25" stroke-miterlimit="10"/>
<path d="M-183 315.869C-183 315.869 106.173 128.247 698.718 426.997C1030.25 592.484 1171.88 443.308 1332.61 442.393C1566.36 441.661 1701.19 650.686 2102.32 399.161" stroke="url(#paint35_linear_70_8)" stroke-width="0.25" stroke-miterlimit="10"/>
<path d="M-183 342.302C-183 342.302 122.079 117.911 710.267 408.003C1053.19 577.119 1181.57 460.991 1349.34 459.161C1585.22 456.6 1727.98 638.948 2102.38 404.192" stroke="url(#paint36_linear_70_8)" stroke-width="0.25" stroke-miterlimit="10"/>
<path d="M-183 368.704C-183 368.704 138.655 106.143 721.785 388.978C1076.44 560.991 1191.23 478.887 1366.04 475.899C1604.08 471.844 1754.73 627.149 2102.38 409.161" stroke="url(#paint37_linear_70_8)" stroke-width="0.25" stroke-miterlimit="10"/>
<path d="M-183 395.137C-183 395.137 155.323 94.2528 733.303 370.015C1099.75 544.863 1200.89 496.875 1382.71 492.698C1622.91 487.21 1781.42 615.442 2102.35 414.222" stroke="url(#paint38_linear_70_8)" stroke-width="0.25" stroke-miterlimit="10"/>
<path d="M-183 421.57C-183 421.57 172.082 82.1796 744.821 351.021C1123.12 528.613 1210.54 514.832 1399.41 509.466C1641.74 502.576 1808.18 603.674 2102.35 419.222" stroke="url(#paint39_linear_70_8)" stroke-width="0.25" stroke-miterlimit="10"/>
<path d="M-183 447.972C-183 447.972 188.933 69.893 756.339 331.997C1146.52 512.241 1220.2 532.82 1416.1 526.204C1660.61 517.972 1834.93 591.905 2102.35 424.222" stroke="url(#paint40_linear_70_8)" stroke-width="0.25" stroke-miterlimit="10"/>
<path d="M-183 474.405C-183 474.405 205.844 57.5149 767.857 313.033C1169.96 495.838 1229.86 550.869 1432.8 543.003C1679.47 533.46 1861.69 580.167 2102.35 429.253" stroke="url(#paint41_linear_70_8)" stroke-width="0.25" stroke-miterlimit="10"/>
<path d="M-183 500.838C-183 500.838 222.847 45.0149 779.406 294.039C1193.48 479.314 1239.55 568.917 1449.5 559.771C1698.3 548.917 1888.41 568.43 2102.35 434.283" stroke="url(#paint42_linear_70_8)" stroke-width="0.25" stroke-miterlimit="10"/>
<path d="M-183 527.241C-183 527.241 239.881 32.3321 790.924 275.015C1217 462.667 1249.21 586.966 1466.2 576.509C1717.16 564.405 1915.16 556.631 2102.35 439.253" stroke="url(#paint43_linear_70_8)" stroke-width="0.25" stroke-miterlimit="10"/>
<path d="M-183 553.674C-183 553.674 256.975 19.5576 802.442 256.052C1240.59 445.991 1258.87 605.106 1482.9 593.308C1736.02 579.984 1941.92 544.924 2102.35 444.314" stroke="url(#paint44_linear_70_8)" stroke-width="0.25" stroke-miterlimit="10"/>
<path d="M-183 580.106C-183 580.106 274.1 6.69181 813.961 237.058C1264.2 429.161 1268.56 623.247 1499.6 610.076C1754.88 595.533 1968.64 533.155 2102.35 449.314" stroke="url(#paint45_linear_70_8)" stroke-width="0.25" stroke-miterlimit="10"/>
<path d="M-183 606.509C-183 606.509 291.256 -6.29599 825.479 218.064C1287.85 412.241 1278.22 641.417 1516.26 626.844C1773.72 611.112 1995.36 521.417 2102.32 454.344" stroke="url(#paint46_linear_70_8)" stroke-width="0.25" stroke-miterlimit="10"/>
<path d="M-183 632.942C-183 632.942 308.441 -19.3753 836.997 199.07C1311.56 395.198 1287.91 660.045 1532.96 643.612C1792.61 627.21 2022.12 509.649 2102.32 459.344" stroke="url(#paint47_linear_70_8)" stroke-width="0.25" stroke-miterlimit="10"/>
<path d="M-183 659.375C-183 659.375 325.688 -32.5155 848.546 180.076C1335.32 378.033 1297.63 678.125 1549.69 660.381C1811.5 642.667 2048.87 497.911 2102.38 464.375" stroke="url(#paint48_linear_70_8)" stroke-width="0.25" stroke-miterlimit="10"/>
<path d="M-183 685.777C-183 685.777 343.27 -46.6619 860.064 161.082C1359.46 359.923 1307.29 696.173 1566.39 677.149C1830.33 658.125 2075.63 486.143 2102.38 469.375" stroke="url(#paint49_linear_70_8)" stroke-width="0.25" stroke-miterlimit="10"/>
<path d="M-183 712.21C-183 712.21 360.212 -59.1314 871.582 142.088C1382.95 343.308 1316.95 714.253 1583.06 693.917C1849.16 673.582 2102.35 474.405 2102.35 474.405" stroke="url(#paint50_linear_70_8)" stroke-width="0.25" stroke-miterlimit="10"/>
</g>
<path d="M-183 194.436C-183 194.436 114.339 618.186 534.843 626.295C950.106 634.314 1505.35 -99.2838 2102.35 275.716" stroke="url(#paint51_linear_70_8)" stroke-miterlimit="10"/>
<path d="M-183 753.887C-183 753.887 201.7 74.5271 659.471 53.9479C1151.37 31.8442 1305.43 536.448 1581.62 622.119C1893.38 718.826 2102.35 618.216 2102.35 618.216" stroke="url(#paint52_linear_70_8)" stroke-miterlimit="10"/>
<path d="M-183 136.509C-183 136.509 23.9612 41.9967 254.507 92.8199C465.216 139.253 928.258 564.375 1155 641.6C1410.19 728.521 1817.2 653.795 2102.35 137.545" stroke="url(#paint53_linear_70_8)" stroke-miterlimit="10"/>
<path d="M-183 578.186C-183 578.186 74.2389 712.21 392.664 657.85C665.748 611.204 1012.21 213.643 1331.18 214.07C1637.94 214.497 1837.22 343.795 2102.32 694.436" stroke="url(#paint54_linear_70_8)" stroke-miterlimit="10"/>
<path d="M2102.35 212.606C2102.35 212.606 1556.67 -210.046 873.136 194.131C338.364 510.32 226.077 600.35 -183 356.783" stroke="url(#paint55_linear_70_8)" stroke-miterlimit="10"/>
<path d="M2102.35 222.484C2102.35 222.484 1556.67 -200.168 873.136 204.009C338.364 520.198 226.077 610.228 -183 366.661" stroke="url(#paint56_linear_70_8)" stroke-width="0.25" stroke-miterlimit="10"/>
</g>
</g>
<defs>
<linearGradient id="paint0_linear_70_8" x1="1228.15" y1="162.27" x2="2102.49" y2="162.27" gradientUnits="userSpaceOnUse">
<stop stop-color="#87888A"/>
<stop offset="0.4974" stop-color="#E5E5E5"/>
<stop offset="1" stop-color="#7D7E80"/>
</linearGradient>
<linearGradient id="paint1_linear_70_8" x1="1228.16" y1="176.805" x2="2102.48" y2="176.805" gradientUnits="userSpaceOnUse">
<stop stop-color="#87888A"/>
<stop offset="0.4974" stop-color="#E5E5E5"/>
<stop offset="1" stop-color="#7D7E80"/>
</linearGradient>
<linearGradient id="paint2_linear_70_8" x1="1228.17" y1="191.304" x2="2102.46" y2="191.304" gradientUnits="userSpaceOnUse">
<stop stop-color="#87888A"/>
<stop offset="0.4974" stop-color="#E5E5E5"/>
<stop offset="1" stop-color="#7D7E80"/>
</linearGradient>
<linearGradient id="paint3_linear_70_8" x1="1228.19" y1="205.751" x2="2102.44" y2="205.751" gradientUnits="userSpaceOnUse">
<stop stop-color="#87888A"/>
<stop offset="0.4974" stop-color="#E5E5E5"/>
<stop offset="1" stop-color="#7D7E80"/>
</linearGradient>
<linearGradient id="paint4_linear_70_8" x1="1228.2" y1="220.113" x2="2102.42" y2="220.113" gradientUnits="userSpaceOnUse">
<stop stop-color="#87888A"/>
<stop offset="0.4974" stop-color="#E5E5E5"/>
<stop offset="1" stop-color="#7D7E80"/>
</linearGradient>
<linearGradient id="paint5_linear_70_8" x1="1228.23" y1="234.325" x2="2102.4" y2="234.325" gradientUnits="userSpaceOnUse">
<stop stop-color="#87888A"/>
<stop offset="0.4974" stop-color="#E5E5E5"/>
<stop offset="1" stop-color="#7D7E80"/>
</linearGradient>
<linearGradient id="paint6_linear_70_8" x1="1228.26" y1="248.26" x2="2102.38" y2="248.26" gradientUnits="userSpaceOnUse">
<stop stop-color="#87888A"/>
<stop offset="0.4974" stop-color="#E5E5E5"/>
<stop offset="1" stop-color="#7D7E80"/>
</linearGradient>
<linearGradient id="paint7_linear_70_8" x1="1228.29" y1="261.398" x2="2102.35" y2="261.398" gradientUnits="userSpaceOnUse">
<stop stop-color="#87888A"/>
<stop offset="0.4974" stop-color="#E5E5E5"/>
<stop offset="1" stop-color="#7D7E80"/>
</linearGradient>
<linearGradient id="paint8_linear_70_8" x1="1228.33" y1="271.874" x2="2102.34" y2="271.874" gradientUnits="userSpaceOnUse">
<stop stop-color="#87888A"/>
<stop offset="0.4974" stop-color="#E5E5E5"/>
<stop offset="1" stop-color="#7D7E80"/>
</linearGradient>
<linearGradient id="paint9_linear_70_8" x1="1228.38" y1="280.71" x2="2102.37" y2="280.71" gradientUnits="userSpaceOnUse">
<stop stop-color="#87888A"/>
<stop offset="0.4974" stop-color="#E5E5E5"/>
<stop offset="1" stop-color="#7D7E80"/>
</linearGradient>
<linearGradient id="paint10_linear_70_8" x1="1228.43" y1="289.545" x2="2102.4" y2="289.545" gradientUnits="userSpaceOnUse">
<stop stop-color="#87888A"/>
<stop offset="0.4974" stop-color="#E5E5E5"/>
<stop offset="1" stop-color="#7D7E80"/>
</linearGradient>
<linearGradient id="paint11_linear_70_8" x1="1228.48" y1="302.249" x2="2102.43" y2="302.249" gradientUnits="userSpaceOnUse">
<stop stop-color="#87888A"/>
<stop offset="0.4974" stop-color="#E5E5E5"/>
<stop offset="1" stop-color="#7D7E80"/>
</linearGradient>
<linearGradient id="paint12_linear_70_8" x1="1228.44" y1="324.419" x2="2102.46" y2="324.419" gradientUnits="userSpaceOnUse">
<stop stop-color="#87888A"/>
<stop offset="0.4974" stop-color="#E5E5E5"/>
<stop offset="1" stop-color="#7D7E80"/>
</linearGradient>
<linearGradient id="paint13_linear_70_8" x1="1228.4" y1="347.218" x2="2102.48" y2="347.218" gradientUnits="userSpaceOnUse">
<stop stop-color="#87888A"/>
<stop offset="0.4974" stop-color="#E5E5E5"/>
<stop offset="1" stop-color="#7D7E80"/>
</linearGradient>
<linearGradient id="paint14_linear_70_8" x1="1228.36" y1="370.159" x2="2102.51" y2="370.159" gradientUnits="userSpaceOnUse">
<stop stop-color="#87888A"/>
<stop offset="0.4974" stop-color="#E5E5E5"/>
<stop offset="1" stop-color="#7D7E80"/>
</linearGradient>
<linearGradient id="paint15_linear_70_8" x1="1228.32" y1="384.534" x2="2102.54" y2="384.534" gradientUnits="userSpaceOnUse">
<stop stop-color="#87888A"/>
<stop offset="0.4974" stop-color="#E5E5E5"/>
<stop offset="1" stop-color="#7D7E80"/>
</linearGradient>
<linearGradient id="paint16_linear_70_8" x1="1228.29" y1="398.988" x2="2102.56" y2="398.988" gradientUnits="userSpaceOnUse">
<stop stop-color="#87888A"/>
<stop offset="0.4974" stop-color="#E5E5E5"/>
<stop offset="1" stop-color="#7D7E80"/>
</linearGradient>
<linearGradient id="paint17_linear_70_8" x1="-183.38" y1="382.146" x2="2102.74" y2="382.146" gradientUnits="userSpaceOnUse">
<stop stop-color="#87888A"/>
<stop offset="0.4974" stop-color="#E5E5E5"/>
<stop offset="1" stop-color="#7D7E80"/>
</linearGradient>
<linearGradient id="paint18_linear_70_8" x1="-183.43" y1="384.839" x2="2102.74" y2="384.839" gradientUnits="userSpaceOnUse">
<stop stop-color="#87888A"/>
<stop offset="0.4974" stop-color="#E5E5E5"/>
<stop offset="1" stop-color="#7D7E80"/>
</linearGradient>
<linearGradient id="paint19_linear_70_8" x1="-183.466" y1="386.263" x2="2102.74" y2="386.263" gradientUnits="userSpaceOnUse">
<stop stop-color="#87888A"/>
<stop offset="0.4974" stop-color="#E5E5E5"/>
<stop offset="1" stop-color="#7D7E80"/>
</linearGradient>
<linearGradient id="paint20_linear_70_8" x1="-183.497" y1="386.19" x2="2102.74" y2="386.19" gradientUnits="userSpaceOnUse">
<stop stop-color="#87888A"/>
<stop offset="0.4974" stop-color="#E5E5E5"/>
<stop offset="1" stop-color="#7D7E80"/>
</linearGradient>
<linearGradient id="paint21_linear_70_8" x1="-183.521" y1="385.18" x2="2102.74" y2="385.18" gradientUnits="userSpaceOnUse">
<stop stop-color="#87888A"/>
<stop offset="0.4974" stop-color="#E5E5E5"/>
<stop offset="1" stop-color="#7D7E80"/>
</linearGradient>
<linearGradient id="paint22_linear_70_8" x1="-183.541" y1="383.598" x2="2102.74" y2="383.598" gradientUnits="userSpaceOnUse">
<stop stop-color="#87888A"/>
<stop offset="0.4974" stop-color="#E5E5E5"/>
<stop offset="1" stop-color="#7D7E80"/>
</linearGradient>
<linearGradient id="paint23_linear_70_8" x1="-183.558" y1="381.903" x2="2102.74" y2="381.903" gradientUnits="userSpaceOnUse">
<stop stop-color="#87888A"/>
<stop offset="0.4974" stop-color="#E5E5E5"/>
<stop offset="1" stop-color="#7D7E80"/>
</linearGradient>
<linearGradient id="paint24_linear_70_8" x1="-183.572" y1="381.33" x2="2102.74" y2="381.33" gradientUnits="userSpaceOnUse">
<stop stop-color="#87888A"/>
<stop offset="0.4974" stop-color="#E5E5E5"/>
<stop offset="1" stop-color="#7D7E80"/>
</linearGradient>
<linearGradient id="paint25_linear_70_8" x1="-183.584" y1="384.401" x2="2102.74" y2="384.401" gradientUnits="userSpaceOnUse">
<stop stop-color="#87888A"/>
<stop offset="0.4974" stop-color="#E5E5E5"/>
<stop offset="1" stop-color="#7D7E80"/>
</linearGradient>
<linearGradient id="paint26_linear_70_8" x1="-183.594" y1="386.996" x2="2102.74" y2="386.996" gradientUnits="userSpaceOnUse">
<stop stop-color="#87888A"/>
<stop offset="0.4974" stop-color="#E5E5E5"/>
<stop offset="1" stop-color="#7D7E80"/>
</linearGradient>
<linearGradient id="paint27_linear_70_8" x1="-183.603" y1="389.172" x2="2102.74" y2="389.172" gradientUnits="userSpaceOnUse">
<stop stop-color="#87888A"/>
<stop offset="0.4974" stop-color="#E5E5E5"/>
<stop offset="1" stop-color="#7D7E80"/>
</linearGradient>
<linearGradient id="paint28_linear_70_8" x1="-183.611" y1="390.984" x2="2102.74" y2="390.984" gradientUnits="userSpaceOnUse">
<stop stop-color="#87888A"/>
<stop offset="0.4974" stop-color="#E5E5E5"/>
<stop offset="1" stop-color="#7D7E80"/>
</linearGradient>
<linearGradient id="paint29_linear_70_8" x1="-183.617" y1="392.48" x2="2102.74" y2="392.48" gradientUnits="userSpaceOnUse">
<stop stop-color="#87888A"/>
<stop offset="0.4974" stop-color="#E5E5E5"/>
<stop offset="1" stop-color="#7D7E80"/>
</linearGradient>
<linearGradient id="paint30_linear_70_8" x1="-183.623" y1="393.722" x2="2102.74" y2="393.722" gradientUnits="userSpaceOnUse">
<stop stop-color="#87888A"/>
<stop offset="0.4974" stop-color="#E5E5E5"/>
<stop offset="1" stop-color="#7D7E80"/>
</linearGradient>
<linearGradient id="paint31_linear_70_8" x1="-183.629" y1="394.7" x2="2102.74" y2="394.7" gradientUnits="userSpaceOnUse">
<stop stop-color="#87888A"/>
<stop offset="0.4974" stop-color="#E5E5E5"/>
<stop offset="1" stop-color="#7D7E80"/>
</linearGradient>
<linearGradient id="paint32_linear_70_8" x1="-183.634" y1="399.119" x2="2102.74" y2="399.119" gradientUnits="userSpaceOnUse">
<stop stop-color="#87888A"/>
<stop offset="0.4974" stop-color="#E5E5E5"/>
<stop offset="1" stop-color="#7D7E80"/>
</linearGradient>
<linearGradient id="paint33_linear_70_8" x1="-183.638" y1="404.635" x2="2102.8" y2="404.635" gradientUnits="userSpaceOnUse">
<stop stop-color="#87888A"/>
<stop offset="0.4974" stop-color="#E5E5E5"/>
<stop offset="1" stop-color="#7D7E80"/>
</linearGradient>
<linearGradient id="paint34_linear_70_8" x1="-183.198" y1="387.753" x2="2102.54" y2="387.753" gradientUnits="userSpaceOnUse">
<stop stop-color="#87888A"/>
<stop offset="0.4974" stop-color="#E5E5E5"/>
<stop offset="1" stop-color="#7D7E80"/>
</linearGradient>
<linearGradient id="paint35_linear_70_8" x1="-183.222" y1="390.446" x2="2102.54" y2="390.446" gradientUnits="userSpaceOnUse">
<stop stop-color="#87888A"/>
<stop offset="0.4974" stop-color="#E5E5E5"/>
<stop offset="1" stop-color="#7D7E80"/>
</linearGradient>
<linearGradient id="paint36_linear_70_8" x1="-183.241" y1="391.87" x2="2102.54" y2="391.87" gradientUnits="userSpaceOnUse">
<stop stop-color="#87888A"/>
<stop offset="0.4974" stop-color="#E5E5E5"/>
<stop offset="1" stop-color="#7D7E80"/>
</linearGradient>
<linearGradient id="paint37_linear_70_8" x1="-183.256" y1="391.798" x2="2102.54" y2="391.798" gradientUnits="userSpaceOnUse">
<stop stop-color="#87888A"/>
<stop offset="0.4974" stop-color="#E5E5E5"/>
<stop offset="1" stop-color="#7D7E80"/>
</linearGradient>
<linearGradient id="paint38_linear_70_8" x1="-183.268" y1="390.787" x2="2102.54" y2="390.787" gradientUnits="userSpaceOnUse">
<stop stop-color="#87888A"/>
<stop offset="0.4974" stop-color="#E5E5E5"/>
<stop offset="1" stop-color="#7D7E80"/>
</linearGradient>
<linearGradient id="paint39_linear_70_8" x1="-183.278" y1="389.205" x2="2102.54" y2="389.205" gradientUnits="userSpaceOnUse">
<stop stop-color="#87888A"/>
<stop offset="0.4974" stop-color="#E5E5E5"/>
<stop offset="1" stop-color="#7D7E80"/>
</linearGradient>
<linearGradient id="paint40_linear_70_8" x1="-183.287" y1="387.51" x2="2102.54" y2="387.51" gradientUnits="userSpaceOnUse">
<stop stop-color="#87888A"/>
<stop offset="0.4974" stop-color="#E5E5E5"/>
<stop offset="1" stop-color="#7D7E80"/>
</linearGradient>
<linearGradient id="paint41_linear_70_8" x1="-183.294" y1="386.938" x2="2102.54" y2="386.938" gradientUnits="userSpaceOnUse">
<stop stop-color="#87888A"/>
<stop offset="0.4974" stop-color="#E5E5E5"/>
<stop offset="1" stop-color="#7D7E80"/>
</linearGradient>
<linearGradient id="paint42_linear_70_8" x1="-183.3" y1="390.009" x2="2102.54" y2="390.009" gradientUnits="userSpaceOnUse">
<stop stop-color="#87888A"/>
<stop offset="0.4974" stop-color="#E5E5E5"/>
<stop offset="1" stop-color="#7D7E80"/>
</linearGradient>
<linearGradient id="paint43_linear_70_8" x1="-183.305" y1="392.604" x2="2102.54" y2="392.604" gradientUnits="userSpaceOnUse">
<stop stop-color="#87888A"/>
<stop offset="0.4974" stop-color="#E5E5E5"/>
<stop offset="1" stop-color="#7D7E80"/>
</linearGradient>
<linearGradient id="paint44_linear_70_8" x1="-183.309" y1="394.78" x2="2102.54" y2="394.78" gradientUnits="userSpaceOnUse">
<stop stop-color="#87888A"/>
<stop offset="0.4974" stop-color="#E5E5E5"/>
<stop offset="1" stop-color="#7D7E80"/>
</linearGradient>
<linearGradient id="paint45_linear_70_8" x1="-183.313" y1="396.591" x2="2102.54" y2="396.591" gradientUnits="userSpaceOnUse">
<stop stop-color="#87888A"/>
<stop offset="0.4974" stop-color="#E5E5E5"/>
<stop offset="1" stop-color="#7D7E80"/>
</linearGradient>
<linearGradient id="paint46_linear_70_8" x1="-183.316" y1="398.088" x2="2102.54" y2="398.088" gradientUnits="userSpaceOnUse">
<stop stop-color="#87888A"/>
<stop offset="0.4974" stop-color="#E5E5E5"/>
<stop offset="1" stop-color="#7D7E80"/>
</linearGradient>
<linearGradient id="paint47_linear_70_8" x1="-183.319" y1="399.33" x2="2102.54" y2="399.33" gradientUnits="userSpaceOnUse">
<stop stop-color="#87888A"/>
<stop offset="0.4974" stop-color="#E5E5E5"/>
<stop offset="1" stop-color="#7D7E80"/>
</linearGradient>
<linearGradient id="paint48_linear_70_8" x1="-183.322" y1="400.307" x2="2102.54" y2="400.307" gradientUnits="userSpaceOnUse">
<stop stop-color="#87888A"/>
<stop offset="0.4974" stop-color="#E5E5E5"/>
<stop offset="1" stop-color="#7D7E80"/>
</linearGradient>
<linearGradient id="paint49_linear_70_8" x1="-183.325" y1="404.807" x2="2102.54" y2="404.807" gradientUnits="userSpaceOnUse">
<stop stop-color="#87888A"/>
<stop offset="0.4974" stop-color="#E5E5E5"/>
<stop offset="1" stop-color="#7D7E80"/>
</linearGradient>
<linearGradient id="paint50_linear_70_8" x1="-183.327" y1="410.323" x2="2102.57" y2="410.323" gradientUnits="userSpaceOnUse">
<stop stop-color="#87888A"/>
<stop offset="0.4974" stop-color="#E5E5E5"/>
<stop offset="1" stop-color="#7D7E80"/>
</linearGradient>
<linearGradient id="paint51_linear_70_8" x1="-184.262" y1="397.65" x2="2103.14" y2="397.65" gradientUnits="userSpaceOnUse">
<stop stop-color="#87888A"/>
<stop offset="0.4974" stop-color="#E5E5E5"/>
<stop offset="1" stop-color="#7D7E80"/>
</linearGradient>
<linearGradient id="paint52_linear_70_8" x1="-184.341" y1="403.179" x2="2102.99" y2="403.179" gradientUnits="userSpaceOnUse">
<stop stop-color="#87888A"/>
<stop offset="0.4974" stop-color="#E5E5E5"/>
<stop offset="1" stop-color="#7D7E80"/>
</linearGradient>
<linearGradient id="paint53_linear_70_8" x1="-183.648" y1="375.16" x2="2103.67" y2="375.16" gradientUnits="userSpaceOnUse">
<stop stop-color="#87888A"/>
<stop offset="0.4974" stop-color="#E5E5E5"/>
<stop offset="1" stop-color="#7D7E80"/>
</linearGradient>
<linearGradient id="paint54_linear_70_8" x1="-183.719" y1="453.948" x2="2103.55" y2="453.948" gradientUnits="userSpaceOnUse">
<stop stop-color="#87888A"/>
<stop offset="0.4974" stop-color="#E5E5E5"/>
<stop offset="1" stop-color="#7D7E80"/>
</linearGradient>
<linearGradient id="paint55_linear_70_8" x1="-183.794" y1="257.534" x2="2103.27" y2="257.534" gradientUnits="userSpaceOnUse">
<stop stop-color="#87888A"/>
<stop offset="0.4974" stop-color="#E5E5E5"/>
<stop offset="1" stop-color="#7D7E80"/>
</linearGradient>
<linearGradient id="paint56_linear_70_8" x1="-183.21" y1="267.411" x2="2102.57" y2="267.411" gradientUnits="userSpaceOnUse">
<stop stop-color="#87888A"/>
<stop offset="0.4974" stop-color="#E5E5E5"/>
<stop offset="1" stop-color="#7D7E80"/>
</linearGradient>
</defs>
</svg>
