<svg width="32" height="32" viewBox="0 0 32 32" fill="none" xmlns="http://www.w3.org/2000/svg">
<g clip-path="url(#clip0_146_1393)">
<path d="M27.0894 5.82659C25.0499 4.89078 22.8627 4.20128 20.5759 3.80634C20.5343 3.79872 20.4927 3.81778 20.4712 3.85584C20.1899 4.35616 19.8784 5.00878 19.6602 5.52178C17.2006 5.15353 14.7536 5.15353 12.3445 5.52178C12.1262 4.99741 11.8034 4.35616 11.5208 3.85584C11.4994 3.81903 11.4577 3.79997 11.4161 3.80634C9.13061 4.19997 6.94348 4.88947 4.90261 5.82659C4.88492 5.83422 4.8698 5.84691 4.85973 5.86341C0.711235 12.0612 -0.425265 18.1067 0.132235 24.0772C0.134735 24.1064 0.151172 24.1343 0.17386 24.1522C2.91092 26.1622 5.5623 27.3825 8.16436 28.1913C8.20598 28.204 8.25011 28.1888 8.27661 28.1545C8.89211 27.314 9.4408 26.4277 9.91123 25.4956C9.93898 25.441 9.91248 25.3762 9.85573 25.3547C8.98542 25.0245 8.15673 24.622 7.35955 24.1649C7.29648 24.1281 7.29142 24.0379 7.34948 23.9947C7.51723 23.869 7.68505 23.7382 7.84523 23.6062C7.87423 23.582 7.91461 23.577 7.94867 23.5922C13.1857 25.9832 18.8554 25.9832 24.0305 23.5922C24.0646 23.5757 24.105 23.5808 24.1352 23.6048C24.2955 23.7369 24.4632 23.869 24.6322 23.9947C24.6902 24.0378 24.6864 24.128 24.6234 24.1648C23.8262 24.6308 22.9975 25.0245 22.126 25.3533C22.0692 25.3749 22.044 25.441 22.0718 25.4955C22.5524 26.4263 23.101 27.3126 23.7052 28.1532C23.7304 28.1888 23.7758 28.204 23.8174 28.1913C26.4321 27.3825 29.0835 26.1622 31.8205 24.1521C31.8445 24.1343 31.8597 24.1077 31.8622 24.0785C32.5294 17.1759 30.7446 11.18 27.1309 5.86466C27.1222 5.84691 27.107 5.83422 27.0894 5.82659V5.82659ZM10.6934 20.4418C9.11673 20.4418 7.81755 18.9943 7.81755 17.2165C7.81755 15.4388 9.09148 13.9913 10.6934 13.9913C12.3079 13.9913 13.5945 15.4515 13.5692 17.2165C13.5692 18.9943 12.2952 20.4418 10.6934 20.4418ZM21.3264 20.4418C19.7497 20.4418 18.4505 18.9943 18.4505 17.2165C18.4505 15.4388 19.7245 13.9913 21.3264 13.9913C22.9409 13.9913 24.2274 15.4515 24.2022 17.2165C24.2022 18.9943 22.9409 20.4418 21.3264 20.4418Z" fill="#C6C6D7"/>
</g>
<defs>
<clipPath id="clip0_146_1393">
<rect width="32" height="32" fill="white"/>
</clipPath>
</defs>
</svg>
