<svg width="32" height="32" viewBox="0 0 32 32" fill="none" xmlns="http://www.w3.org/2000/svg">
<path d="M23.4172 1.33936L19.7142 1.33325C15.554 1.33325 12.8655 4.1667 12.8655 8.55222V11.8807H9.14226C8.82053 11.8807 8.56 12.1486 8.56 12.4791V17.3016C8.56 17.6321 8.82083 17.8997 9.14226 17.8997H12.8655V30.0685C12.8655 30.399 13.126 30.6666 13.4477 30.6666H18.3055C18.6272 30.6666 18.8877 30.3986 18.8877 30.0685V17.8997H23.2411C23.5628 17.8997 23.8233 17.6321 23.8233 17.3016L23.8251 12.4791C23.8251 12.3204 23.7636 12.1684 23.6546 12.0561C23.5456 11.9438 23.397 11.8807 23.2425 11.8807H18.8877V9.0591C18.8877 7.70295 19.2023 7.0145 20.9221 7.0145L23.4166 7.01358C23.7381 7.01358 23.9986 6.74565 23.9986 6.41546V1.93748C23.9986 1.60759 23.7384 1.33997 23.4172 1.33936Z" fill="#9595A9"/>
</svg>
