<svg width="40" height="40" viewBox="0 0 40 40" fill="none" xmlns="http://www.w3.org/2000/svg">
<circle cx="20" cy="20" r="20" fill="#292938"/>
<path d="M24.6359 10.8371L22.3215 10.8333C19.7213 10.8333 18.041 12.6042 18.041 15.3452V17.4254H15.714C15.5129 17.4254 15.3501 17.5929 15.3501 17.7995V20.8135C15.3501 21.0201 15.5131 21.1874 15.714 21.1874H18.041V28.7928C18.041 28.9994 18.2039 29.1666 18.4049 29.1666H21.441C21.6421 29.1666 21.8049 28.9992 21.8049 28.7928V21.1874H24.5258C24.7268 21.1874 24.8897 21.0201 24.8897 20.8135L24.8908 17.7995C24.8908 17.7003 24.8524 17.6053 24.7842 17.5351C24.7161 17.4649 24.6232 17.4254 24.5267 17.4254H21.8049V15.662C21.8049 14.8144 22.0016 14.3841 23.0764 14.3841L24.6355 14.3835C24.8364 14.3835 24.9992 14.2161 24.9992 14.0097V11.211C24.9992 11.0048 24.8366 10.8375 24.6359 10.8371Z" fill="#BD80F4"/>
</svg>
