<svg width="32" height="32" viewBox="0 0 32 32" fill="none" xmlns="http://www.w3.org/2000/svg">
<path d="M11.4922 28.7998C12.4026 28.7998 12.651 28.4408 12.651 27.9986C12.651 27.6027 12.6369 26.5544 12.6298 25.1653C7.91272 26.1701 6.91784 22.9298 6.91784 22.9298C6.14632 21.0066 5.03112 20.492 5.03112 20.492C3.49512 19.459 5.14984 19.4802 5.14984 19.4802C6.85288 19.596 7.74728 21.1973 7.74728 21.1973C9.25928 23.7451 11.7169 23.0091 12.6865 22.5835C12.8391 21.5051 13.2759 20.7717 13.7604 20.355C9.99432 19.9381 6.03592 18.5051 6.03592 12.1205C6.03592 10.3016 6.6932 8.8152 7.7812 7.64912C7.59048 7.228 7.018 5.5336 7.92968 3.23856C7.92968 3.23856 9.34984 2.79184 12.593 4.94704C13.9498 4.5768 15.3911 4.39312 16.8327 4.38448C18.2743 4.3928 19.7156 4.5768 21.0724 4.94704C24.2945 2.79184 25.7146 3.23856 25.7146 3.23856C26.626 5.5336 26.0538 7.228 25.8842 7.64912C26.9652 8.81488 27.6225 10.3016 27.6225 12.1205C27.6225 18.5221 23.6586 19.931 19.8852 20.341C20.4788 20.8411 21.0298 21.8629 21.0298 23.4245C21.0298 25.6546 21.0087 27.4466 21.0087 27.9877C21.0087 28.4245 21.1975 28.779 22.1745 28.779L11.4922 28.7998Z" fill="#C6C6D7"/>
</svg>
