<svg width="32" height="32" viewBox="0 0 32 32" fill="none" xmlns="http://www.w3.org/2000/svg">
<path d="M29.3072 10.5068C29.2447 9.08992 29.0156 8.11581 28.6874 7.27173C28.3488 6.37576 27.8278 5.57361 27.1453 4.90677C26.4785 4.22955 25.671 3.70333 24.7854 3.37001C23.9365 3.04178 22.9675 2.81265 21.5506 2.75018C20.1231 2.68242 19.6699 2.66675 16.0494 2.66675C12.4289 2.66675 11.9758 2.68242 10.5536 2.74489C9.13666 2.80736 8.16256 3.03669 7.31868 3.36472C6.42251 3.70333 5.62036 4.22426 4.95352 4.90677C4.2763 5.57361 3.75028 6.38106 3.41676 7.26664C3.08853 8.11581 2.8594 9.08463 2.79693 10.5015C2.72917 11.929 2.7135 12.3822 2.7135 16.0027C2.7135 19.6232 2.72917 20.0764 2.79164 21.4985C2.85411 22.9155 3.08345 23.8896 3.41167 24.7336C3.75028 25.6296 4.2763 26.4318 4.95352 27.0986C5.62036 27.7758 6.4278 28.302 7.31339 28.6354C8.16256 28.9636 9.13137 29.1927 10.5485 29.2552C11.9705 29.3179 12.4238 29.3333 16.0443 29.3333C19.6648 29.3333 20.118 29.3179 21.5402 29.2552C22.9571 29.1927 23.9312 28.9636 24.7751 28.6354C26.5672 27.9425 27.9841 26.5256 28.677 24.7336C29.005 23.8845 29.2343 22.9155 29.2968 21.4985C29.3593 20.0764 29.375 19.6232 29.375 16.0027C29.375 12.3822 29.3697 11.929 29.3072 10.5068ZM26.9058 21.3944C26.8484 22.6967 26.6297 23.4 26.4473 23.8688C25.9993 25.0305 25.0773 25.9525 23.9155 26.4006C23.4467 26.583 22.7383 26.8017 21.4411 26.8589C20.0346 26.9216 19.6127 26.937 16.0547 26.937C12.4967 26.937 12.0696 26.9216 10.6681 26.8589C9.36579 26.8017 8.66253 26.583 8.19369 26.4006C7.61557 26.187 7.08935 25.8484 6.66222 25.4056C6.21943 24.9731 5.88082 24.4522 5.66716 23.8741C5.48483 23.4053 5.26608 22.6967 5.2089 21.3997C5.14622 19.9931 5.13076 19.5711 5.13076 16.0131C5.13076 12.455 5.14622 12.0279 5.2089 10.6267C5.26608 9.32434 5.48483 8.62108 5.66716 8.15223C5.88082 7.57392 6.21943 7.04789 6.66751 6.62056C7.09973 6.17777 7.62066 5.83916 8.19898 5.6257C8.66782 5.44337 9.37637 5.22462 10.6734 5.16724C12.0799 5.10476 12.502 5.0891 16.0598 5.0891C19.6231 5.0891 20.0449 5.10476 21.4464 5.16724C22.7487 5.22462 23.452 5.44337 23.9208 5.6257C24.4989 5.83916 25.0252 6.17777 25.4523 6.62056C25.8951 7.05298 26.2337 7.57392 26.4473 8.15223C26.6297 8.62108 26.8484 9.32943 26.9058 10.6267C26.9683 12.0332 26.984 12.455 26.984 16.0131C26.984 19.5711 26.9683 19.9878 26.9058 21.3944Z" fill="#9595A9"/>
<path d="M16.0494 9.15239C12.2675 9.15239 9.19912 12.2206 9.19912 16.0027C9.19912 19.7848 12.2675 22.853 16.0494 22.853C19.8315 22.853 22.8997 19.7848 22.8997 16.0027C22.8997 12.2206 19.8315 9.15239 16.0494 9.15239ZM16.0494 20.4463C13.5959 20.4463 11.6058 18.4564 11.6058 16.0027C11.6058 13.549 13.5959 11.5591 16.0494 11.5591C18.5031 11.5591 20.493 13.549 20.493 16.0027C20.493 18.4564 18.5031 20.4463 16.0494 20.4463Z" fill="#9595A9"/>
<path d="M24.77 8.88155C24.77 9.7647 24.054 10.4808 23.1706 10.4808C22.2874 10.4808 21.5714 9.7647 21.5714 8.88155C21.5714 7.99819 22.2874 7.28231 23.1706 7.28231C24.054 7.28231 24.77 7.99819 24.77 8.88155Z" fill="#9595A9"/>
</svg>
