<svg width="40" height="40" viewBox="0 0 40 40" fill="none" xmlns="http://www.w3.org/2000/svg">
<circle cx="20" cy="20" r="20" fill="#292938"/>
<path d="M28.3291 28.3333V28.3327H28.3333V22.2201C28.3333 19.2299 27.6896 16.9264 24.1937 16.9264C22.5132 16.9264 21.3854 17.8486 20.925 18.7229H20.8764V17.2056H17.5618V28.3327H21.0132V22.8229C21.0132 21.3722 21.2882 19.9695 23.0847 19.9695C24.8548 19.9695 24.8812 21.625 24.8812 22.916V28.3333H28.3291Z" fill="#BD80F4"/>
<path d="M11.9417 17.2062H15.3972V28.3333H11.9417V17.2062Z" fill="#BD80F4"/>
<path d="M13.6681 11.6667C12.5633 11.6667 11.6667 12.5632 11.6667 13.6681C11.6667 14.7729 12.5633 15.6882 13.6681 15.6882C14.773 15.6882 15.6695 14.7729 15.6695 13.6681C15.6688 12.5632 14.7723 11.6667 13.6681 11.6667V11.6667Z" fill="#BD80F4"/>
</svg>
