<svg width="32" height="32" viewBox="0 0 32 32" fill="none" xmlns="http://www.w3.org/2000/svg">
<path fill-rule="evenodd" clip-rule="evenodd" d="M18.0497 15.9999C18.0497 21.0184 14.0092 25.0867 9.02487 25.0867C4.04056 25.0867 0 21.0184 0 15.9999C0 10.9814 4.04056 6.91309 9.02487 6.91309C14.0091 6.91309 18.0497 10.9814 18.0497 15.9999ZM27.9503 15.9999C27.9503 20.724 25.9299 24.5535 23.4378 24.5535C20.9457 24.5535 18.9254 20.724 18.9254 15.9999C18.9254 11.2759 20.9457 7.44629 23.4378 7.44629C25.93 7.44629 27.9503 11.2759 27.9503 15.9999ZM30.4129 23.6636C31.2894 23.6636 32 20.2324 32 15.9999C32 11.7673 31.2894 8.33618 30.4129 8.33618C29.5364 8.33618 28.8259 11.7673 28.8259 15.9999C28.8259 20.2324 29.5364 23.6636 30.4129 23.6636Z" fill="#C6C6D7"/>
</svg>
