<svg width="40" height="40" viewBox="0 0 40 40" fill="none" xmlns="http://www.w3.org/2000/svg">
<circle cx="20" cy="20" r="20" fill="#292938"/>
<path d="M28.75 14.8104C28.1059 15.0837 27.4148 15.269 26.6887 15.3518C27.4301 14.9266 27.9976 14.2523 28.2666 13.4513C27.5711 13.845 26.8035 14.1309 25.9855 14.2858C25.3305 13.6168 24.3988 13.2 23.3653 13.2C21.3827 13.2 19.7752 14.7392 19.7752 16.6366C19.7752 16.9056 19.8069 17.1685 19.8682 17.4198C16.885 17.2763 14.2397 15.9078 12.4693 13.8282C12.1598 14.335 11.9837 14.9256 11.9837 15.556C11.9837 16.7486 12.618 17.8009 13.5803 18.4166C12.992 18.3977 12.4387 18.2428 11.9542 17.9852V18.0281C11.9542 19.693 13.1921 21.0825 14.8335 21.3987C14.5328 21.4762 14.2157 21.5191 13.8876 21.5191C13.6558 21.5191 13.4316 21.4971 13.2118 21.4552C13.6689 22.8217 14.9943 23.8154 16.5646 23.8426C15.3366 24.7641 13.7881 25.3117 12.1062 25.3117C11.8165 25.3117 11.531 25.2949 11.25 25.2646C12.8389 26.2415 14.7253 26.8111 16.7527 26.8111C23.3566 26.8111 26.9665 21.5736 26.9665 17.0313L26.9544 16.5863C27.6597 16.1046 28.2699 15.4994 28.75 14.8104Z" fill="#BD80F4"/>
</svg>
