<svg width="32" height="32" viewBox="0 0 32 32" fill="none" xmlns="http://www.w3.org/2000/svg">
<path fill-rule="evenodd" clip-rule="evenodd" d="M28.5204 5.48535C29.891 5.85449 30.9718 6.93505 31.3407 8.30589C32.0262 10.8098 31.9999 16.029 31.9999 16.029C31.9999 16.029 31.9999 21.2216 31.3409 23.7257C30.9718 25.0963 29.8912 26.1771 28.5204 26.546C26.0162 27.2052 15.9999 27.2052 15.9999 27.2052C15.9999 27.2052 6.00974 27.2052 3.47948 26.5199C2.10863 26.1508 1.02807 25.07 0.658933 23.6994C0 21.2216 0 16.0026 0 16.0026C0 16.0026 0 10.8098 0.658933 8.30589C1.02783 6.93529 2.135 5.82812 3.47923 5.45923C5.98337 4.80005 15.9997 4.80005 15.9997 4.80005C15.9997 4.80005 26.0162 4.80005 28.5204 5.48535ZM21.1399 16.0027L12.8105 20.8V11.2053L21.1399 16.0027Z" fill="#9595A9"/>
</svg>
