<svg width="80" height="80" viewBox="0 0 80 80" fill="none" xmlns="http://www.w3.org/2000/svg">
<circle cx="47" cy="40" r="28" fill="url(#paint0_linear_511_916)"/>
<path fill-rule="evenodd" clip-rule="evenodd" d="M45.0541 32.1626C45.0541 30.4159 48.176 29 52.0271 29C55.8781 29 59.0001 30.4159 59.0001 32.1626V32.8485C59.0001 34.5952 55.8781 36.0111 52.0271 36.0111C48.176 36.0111 45.0541 34.5952 45.0541 32.8485V32.1626ZM43.9163 41.2428C43.2994 41.3239 42.6475 41.3675 41.973 41.3675C38.122 41.3675 35.0001 39.9514 35.0001 38.2048V37.5189C35.0001 35.7722 38.122 34.3563 41.973 34.3563C42.6475 34.3563 43.2995 34.3999 43.9163 34.4809V41.2428ZM43.9163 44.7738C43.2994 44.8548 42.6475 44.8983 41.973 44.8983C38.122 44.8983 35.0001 43.4824 35.0001 41.7357V41.0498C35.0001 40.8278 35.0507 40.6113 35.1467 40.4021C35.8058 41.838 38.6115 42.917 41.973 42.917C42.6477 42.917 43.2993 42.8728 43.9163 42.7918V44.7738ZM43.9163 46.4767V46.3226C43.2992 46.4037 42.6476 46.4478 41.973 46.4478C38.6114 46.4478 35.8057 45.3689 35.1467 43.933C35.0507 44.1421 35 44.3587 35 44.5807V45.2666C35 47.0133 38.1219 48.4292 41.973 48.4292C42.7431 48.4292 43.4838 48.3724 44.1765 48.2679C44.0048 47.9166 43.9163 47.5463 43.9163 47.1625V46.4767ZM52.0271 37.5606C48.6655 37.5606 45.8598 36.4818 45.2008 35.0458C45.1048 35.2549 45.0541 35.4715 45.0541 35.6935V36.3794C45.0541 38.1261 48.176 39.542 52.0271 39.542C55.8781 39.542 59.0001 38.1261 59.0001 36.3794V35.6935C59.0001 35.4715 58.9494 35.2549 58.8534 35.0458C58.1944 36.4818 55.3886 37.5606 52.0271 37.5606ZM45.2008 38.5767C45.8598 40.0126 48.6655 41.0915 52.0271 41.0915C55.3886 41.0915 58.1944 40.0127 58.8534 38.5767C58.9494 38.7858 59.0001 39.0023 59.0001 39.2244V39.9103C59.0001 41.657 55.8781 43.073 52.0271 43.073C48.176 43.073 45.0541 41.657 45.0541 39.9103V39.2244C45.0541 39.0023 45.1048 38.7858 45.2008 38.5767ZM52.0271 44.813C48.6655 44.813 45.8598 43.734 45.2008 42.2981C45.1048 42.5073 45.0541 42.7238 45.0541 42.9458V43.6317C45.0541 45.3784 48.176 46.7943 52.0271 46.7943C55.8781 46.7943 59.0001 45.3784 59.0001 43.6317V42.9458C59.0001 42.7238 58.9494 42.5071 58.8534 42.2981C58.1944 43.734 55.3886 44.813 52.0271 44.813ZM45.2008 45.829C45.8598 47.265 48.6655 48.3438 52.0271 48.3438C55.3886 48.3438 58.1944 47.2649 58.8534 45.829C58.9494 46.038 59.0001 46.2547 59.0001 46.4767V47.1626C59.0001 48.9093 55.8781 50.3252 52.0271 50.3252C48.176 50.3252 45.0541 48.9093 45.0541 47.1626V46.4767C45.0541 46.2548 45.1048 46.0382 45.2008 45.829Z" fill="white"/>
<g filter="url(#filter0_f_511_916)">
<circle cx="19" cy="51" r="15" fill="url(#paint1_linear_511_916)"/>
<circle cx="19" cy="51" r="14.5" stroke="white"/>
</g>
<circle cx="19" cy="51" r="14.5" stroke="white"/>
<g filter="url(#filter1_d_511_916)">
<path d="M18.043 44.6074H19.6953V45.5918C20.1875 45.6504 20.6387 45.7559 21.0488 45.9082C21.4707 46.0605 21.8223 46.2246 22.1035 46.4004V48.5977C21.7285 48.3516 21.3066 48.1289 20.8379 47.9297C20.3691 47.7305 19.8594 47.6309 19.3086 47.6309C19.0273 47.6309 18.752 47.6719 18.4824 47.7539C18.2129 47.8359 17.9902 47.9648 17.8145 48.1406C17.6387 48.3047 17.5508 48.5215 17.5508 48.791C17.5508 49.1426 17.7031 49.4121 18.0078 49.5996C18.3125 49.7754 18.6934 49.9512 19.1504 50.127L20.5391 50.6895C21.3008 50.9824 21.8516 51.3633 22.1914 51.832C22.543 52.3008 22.7188 52.8281 22.7188 53.4141C22.7188 53.9531 22.584 54.4395 22.3145 54.873C22.0566 55.2949 21.6992 55.6523 21.2422 55.9453C20.7852 56.2383 20.2695 56.4434 19.6953 56.5605V57.9141H18.043V56.6309C17.5273 56.5605 17.0352 56.4316 16.5664 56.2441C16.1094 56.0449 15.7051 55.8164 15.3535 55.5586V53.3613C15.8105 53.7012 16.3203 53.9941 16.8828 54.2402C17.457 54.4746 18.0664 54.5918 18.7109 54.5918C19.1562 54.5918 19.5371 54.5039 19.8535 54.3281C20.1699 54.1406 20.3281 53.8711 20.3281 53.5195C20.3281 53.25 20.1992 53.0273 19.9414 52.8516C19.6836 52.6641 19.4023 52.5117 19.0977 52.3945L17.3574 51.7617C16.5137 51.457 15.9453 51.0469 15.6523 50.5312C15.3711 50.0039 15.2305 49.4297 15.2305 48.8086C15.2305 48.2578 15.3535 47.7715 15.5996 47.3496C15.8574 46.916 16.1973 46.5586 16.6191 46.2773C17.041 45.9844 17.5156 45.7793 18.043 45.6621V44.6074Z" fill="white"/>
</g>
<defs>
<filter id="filter0_f_511_916" x="3" y="35" width="32" height="32" filterUnits="userSpaceOnUse" color-interpolation-filters="sRGB">
<feFlood flood-opacity="0" result="BackgroundImageFix"/>
<feBlend mode="normal" in="SourceGraphic" in2="BackgroundImageFix" result="shape"/>
<feGaussianBlur stdDeviation="0.5" result="effect1_foregroundBlur_511_916"/>
</filter>
<filter id="filter1_d_511_916" x="11.2305" y="44.6074" width="15.4883" height="21.3066" filterUnits="userSpaceOnUse" color-interpolation-filters="sRGB">
<feFlood flood-opacity="0" result="BackgroundImageFix"/>
<feColorMatrix in="SourceAlpha" type="matrix" values="0 0 0 0 0 0 0 0 0 0 0 0 0 0 0 0 0 0 127 0" result="hardAlpha"/>
<feOffset dy="4"/>
<feGaussianBlur stdDeviation="2"/>
<feComposite in2="hardAlpha" operator="out"/>
<feColorMatrix type="matrix" values="0 0 0 0 0.619608 0 0 0 0 0.490196 0 0 0 0 0.878431 0 0 0 1 0"/>
<feBlend mode="normal" in2="BackgroundImageFix" result="effect1_dropShadow_511_916"/>
<feBlend mode="normal" in="SourceGraphic" in2="effect1_dropShadow_511_916" result="shape"/>
</filter>
<linearGradient id="paint0_linear_511_916" x1="61.2456" y1="16.4211" x2="38.6491" y2="54.7368" gradientUnits="userSpaceOnUse">
<stop stop-color="#D4F1F6"/>
<stop offset="1" stop-color="#9A61F5"/>
</linearGradient>
<linearGradient id="paint1_linear_511_916" x1="26.9167" y1="40.1667" x2="13.1667" y2="63.5" gradientUnits="userSpaceOnUse">
<stop stop-color="#AB78FD"/>
<stop offset="1" stop-color="#C4D4F2"/>
</linearGradient>
</defs>
</svg>
