<svg width="80" height="80" viewBox="0 0 80 80" fill="none" xmlns="http://www.w3.org/2000/svg">
<g filter="url(#filter0_f_511_936)">
<circle cx="30.5" cy="26.5" r="9.5" fill="url(#paint0_linear_511_936)"/>
<circle cx="30.5" cy="26.5" r="9" stroke="white"/>
</g>
<g filter="url(#filter1_f_511_936)">
<circle cx="52.5" cy="13.5" r="9.5" fill="url(#paint1_linear_511_936)"/>
<circle cx="52.5" cy="13.5" r="9" stroke="white"/>
</g>
<circle cx="30.5" cy="26.5" r="9" stroke="white"/>
<circle cx="52.5" cy="13.5" r="9" stroke="white"/>
<rect x="9" y="28" width="58" height="47" rx="8" fill="url(#paint2_linear_511_936)"/>
<g filter="url(#filter2_d_511_936)">
<path d="M40 52C40 48.6863 42.6863 46 46 46H68C68.5523 46 69 46.4477 69 47V57C69 57.5523 68.5523 58 68 58H46C42.6863 58 40 55.3137 40 52Z" fill="white"/>
</g>
<defs>
<filter id="filter0_f_511_936" x="20" y="16" width="21" height="21" filterUnits="userSpaceOnUse" color-interpolation-filters="sRGB">
<feFlood flood-opacity="0" result="BackgroundImageFix"/>
<feBlend mode="normal" in="SourceGraphic" in2="BackgroundImageFix" result="shape"/>
<feGaussianBlur stdDeviation="0.5" result="effect1_foregroundBlur_511_936"/>
</filter>
<filter id="filter1_f_511_936" x="42" y="3" width="21" height="21" filterUnits="userSpaceOnUse" color-interpolation-filters="sRGB">
<feFlood flood-opacity="0" result="BackgroundImageFix"/>
<feBlend mode="normal" in="SourceGraphic" in2="BackgroundImageFix" result="shape"/>
<feGaussianBlur stdDeviation="0.5" result="effect1_foregroundBlur_511_936"/>
</filter>
<filter id="filter2_d_511_936" x="36" y="46" width="37" height="20" filterUnits="userSpaceOnUse" color-interpolation-filters="sRGB">
<feFlood flood-opacity="0" result="BackgroundImageFix"/>
<feColorMatrix in="SourceAlpha" type="matrix" values="0 0 0 0 0 0 0 0 0 0 0 0 0 0 0 0 0 0 127 0" result="hardAlpha"/>
<feOffset dy="4"/>
<feGaussianBlur stdDeviation="2"/>
<feComposite in2="hardAlpha" operator="out"/>
<feColorMatrix type="matrix" values="0 0 0 0 0.603922 0 0 0 0 0.380392 0 0 0 0 0.960784 0 0 0 1 0"/>
<feBlend mode="normal" in2="BackgroundImageFix" result="effect1_dropShadow_511_936"/>
<feBlend mode="normal" in="SourceGraphic" in2="effect1_dropShadow_511_936" result="shape"/>
</filter>
<linearGradient id="paint0_linear_511_936" x1="35.5139" y1="19.6389" x2="26.8056" y2="34.4167" gradientUnits="userSpaceOnUse">
<stop stop-color="#AB78FD"/>
<stop offset="1" stop-color="#C4D4F2"/>
</linearGradient>
<linearGradient id="paint1_linear_511_936" x1="57.5139" y1="6.63889" x2="48.8056" y2="21.4167" gradientUnits="userSpaceOnUse">
<stop stop-color="#AB78FD"/>
<stop offset="1" stop-color="#C4D4F2"/>
</linearGradient>
<linearGradient id="paint2_linear_511_936" x1="52.7544" y1="31.7105" x2="35.8923" y2="66.9945" gradientUnits="userSpaceOnUse">
<stop stop-color="#D4F1F6"/>
<stop offset="1" stop-color="#9A61F5"/>
</linearGradient>
</defs>
</svg>
