<svg width="80" height="80" viewBox="0 0 80 80" fill="none" xmlns="http://www.w3.org/2000/svg">
<g clip-path="url(#clip0_511_901)">
<circle cx="35.5" cy="40.5" r="28.5" fill="url(#paint0_linear_511_901)"/>
<g filter="url(#filter0_d_511_901)">
<path d="M33.6367 27.5918H36.7578V29.4512C37.6875 29.5618 38.5397 29.7611 39.3145 30.0488C40.1113 30.3366 40.7754 30.6465 41.3066 30.9785V35.1289C40.5983 34.6641 39.8014 34.2435 38.916 33.8672C38.0306 33.4909 37.0677 33.3027 36.0273 33.3027C35.4961 33.3027 34.9759 33.3802 34.4668 33.5352C33.9577 33.6901 33.5371 33.9336 33.2051 34.2656C32.873 34.5755 32.707 34.985 32.707 35.4941C32.707 36.1582 32.9948 36.6673 33.5703 37.0215C34.1458 37.3535 34.8652 37.6855 35.7285 38.0176L38.3516 39.0801C39.7904 39.6335 40.8307 40.3529 41.4727 41.2383C42.1367 42.1237 42.4688 43.1198 42.4688 44.2266C42.4688 45.2448 42.2142 46.1634 41.7051 46.9824C41.2181 47.7793 40.543 48.4544 39.6797 49.0078C38.8164 49.5612 37.8424 49.9486 36.7578 50.1699V52.7266H33.6367V50.3027C32.6628 50.1699 31.7331 49.9264 30.8477 49.5723C29.9844 49.196 29.2207 48.7643 28.5566 48.2773V44.127C29.4199 44.7689 30.3828 45.3223 31.4453 45.7871C32.5299 46.2298 33.681 46.4512 34.8984 46.4512C35.7396 46.4512 36.459 46.2852 37.0566 45.9531C37.6543 45.599 37.9531 45.0898 37.9531 44.4258C37.9531 43.9167 37.7096 43.4961 37.2227 43.1641C36.7357 42.8099 36.2044 42.5221 35.6289 42.3008L32.3418 41.1055C30.748 40.5299 29.6745 39.7552 29.1211 38.7812C28.5898 37.7852 28.3242 36.7005 28.3242 35.5273C28.3242 34.487 28.5566 33.5684 29.0215 32.7715C29.5085 31.9525 30.1504 31.2773 30.9473 30.7461C31.7441 30.1927 32.6406 29.8053 33.6367 29.584V27.5918Z" fill="white"/>
</g>
<g filter="url(#filter1_f_511_901)">
<circle cx="63" cy="51" r="15" fill="url(#paint1_linear_511_901)"/>
<circle cx="63" cy="51" r="14.5" stroke="white"/>
</g>
<circle cx="63" cy="51" r="14.5" stroke="white"/>
<path d="M68.3034 53.6364C68.6549 53.2849 68.6549 52.7151 68.3034 52.3636C67.9519 52.0121 67.3821 52.0121 67.0306 52.3636L68.3034 53.6364ZM63.0003 57.6667L62.3639 58.3031C62.7154 58.6545 63.2852 58.6545 63.6367 58.3031L63.0003 57.6667ZM58.9701 52.3636C58.6186 52.0121 58.0487 52.0121 57.6973 52.3636C57.3458 52.7151 57.3458 53.2849 57.6973 53.6364L58.9701 52.3636ZM67.0306 52.3636L62.3639 57.0303L63.6367 58.3031L68.3034 53.6364L67.0306 52.3636ZM63.6367 57.0303L58.9701 52.3636L57.6973 53.6364L62.3639 58.3031L63.6367 57.0303Z" fill="white"/>
<path d="M68.3034 46.6364C68.6549 46.2849 68.6549 45.7151 68.3034 45.3636C67.9519 45.0121 67.3821 45.0121 67.0306 45.3636L68.3034 46.6364ZM63.0003 50.6667L62.3639 51.3031C62.7154 51.6545 63.2852 51.6545 63.6367 51.3031L63.0003 50.6667ZM58.9701 45.3636C58.6186 45.0121 58.0487 45.0121 57.6973 45.3636C57.3458 45.7151 57.3458 46.2849 57.6973 46.6364L58.9701 45.3636ZM67.0306 45.3636L62.3639 50.0303L63.6367 51.3031L68.3034 46.6364L67.0306 45.3636ZM63.6367 50.0303L58.9701 45.3636L57.6973 46.6364L62.3639 51.3031L63.6367 50.0303Z" fill="white"/>
</g>
<defs>
<filter id="filter0_d_511_901" x="24.3242" y="27.5918" width="22.1445" height="33.1348" filterUnits="userSpaceOnUse" color-interpolation-filters="sRGB">
<feFlood flood-opacity="0" result="BackgroundImageFix"/>
<feColorMatrix in="SourceAlpha" type="matrix" values="0 0 0 0 0 0 0 0 0 0 0 0 0 0 0 0 0 0 127 0" result="hardAlpha"/>
<feOffset dy="4"/>
<feGaussianBlur stdDeviation="2"/>
<feComposite in2="hardAlpha" operator="out"/>
<feColorMatrix type="matrix" values="0 0 0 0 0.619608 0 0 0 0 0.490196 0 0 0 0 0.878431 0 0 0 1 0"/>
<feBlend mode="normal" in2="BackgroundImageFix" result="effect1_dropShadow_511_901"/>
<feBlend mode="normal" in="SourceGraphic" in2="effect1_dropShadow_511_901" result="shape"/>
</filter>
<filter id="filter1_f_511_901" x="44" y="32" width="38" height="38" filterUnits="userSpaceOnUse" color-interpolation-filters="sRGB">
<feFlood flood-opacity="0" result="BackgroundImageFix"/>
<feBlend mode="normal" in="SourceGraphic" in2="BackgroundImageFix" result="shape"/>
<feGaussianBlur stdDeviation="2" result="effect1_foregroundBlur_511_901"/>
</filter>
<linearGradient id="paint0_linear_511_901" x1="50" y1="16.5" x2="27" y2="55.5" gradientUnits="userSpaceOnUse">
<stop stop-color="#D4F1F6"/>
<stop offset="1" stop-color="#9A61F5"/>
</linearGradient>
<linearGradient id="paint1_linear_511_901" x1="70.9167" y1="40.1667" x2="57.1667" y2="63.5" gradientUnits="userSpaceOnUse">
<stop stop-color="#AB78FD"/>
<stop offset="1" stop-color="#C4D4F2"/>
</linearGradient>
<clipPath id="clip0_511_901">
<rect width="80" height="80" fill="white"/>
</clipPath>
</defs>
</svg>
