<svg width="80" height="80" viewBox="0 0 80 80" fill="none" xmlns="http://www.w3.org/2000/svg">
<path d="M55.1583 19.5571L36.718 10.4835C35.4281 9.85323 33.9036 9.83858 32.6137 10.4689L13.7044 19.5717C12.1213 20.3193 11.0952 21.9024 11.0365 23.6468C9.9225 62.4182 34.6512 68.9852 34.6512 68.9852C34.6512 68.9852 58.9401 62.4182 57.7821 23.6175C57.7382 21.8878 56.7121 20.3193 55.1583 19.5571Z" fill="#9A61F5"/>
<path d="M55.1583 19.5571L36.718 10.4835C35.4281 9.85323 33.9036 9.83858 32.6137 10.4689L13.7044 19.5717C12.1213 20.3193 11.0952 21.9024 11.0365 23.6468C9.9225 62.4182 34.6512 68.9852 34.6512 68.9852C34.6512 68.9852 58.9401 62.4182 57.7821 23.6175C57.7382 21.8878 56.7121 20.3193 55.1583 19.5571Z" fill="url(#paint0_linear_179_2122)"/>
<path d="M34.6662 69.0002C34.6662 69.0002 34.5929 68.9856 34.417 68.927V10.0149C35.2085 9.97092 36.0001 10.1322 36.7184 10.484L55.1733 19.5575C56.7271 20.3197 57.7385 21.8882 57.7971 23.6179C58.9405 62.4333 34.6662 69.0002 34.6662 69.0002Z" fill="url(#paint1_linear_179_2122)"/>
<g filter="url(#filter0_f_179_2122)">
<circle cx="57" cy="51" r="15" fill="url(#paint2_linear_179_2122)"/>
<circle cx="57" cy="51" r="14.5" stroke="white"/>
</g>
<circle cx="57" cy="51" r="14.5" stroke="white"/>
<path fill-rule="evenodd" clip-rule="evenodd" d="M57.0004 50.9998C59.3016 50.9998 61.1671 49.1344 61.1671 46.8332C61.1671 44.532 59.3016 42.6665 57.0004 42.6665C54.6992 42.6665 52.8338 44.532 52.8338 46.8332C52.8338 49.1344 54.6992 50.9998 57.0004 50.9998ZM50.7103 55.1168C49.5077 56.4995 50.1974 58.5644 51.9072 59.2234C53.4878 59.8326 55.2051 60.1665 57.0004 60.1665C58.7957 60.1665 60.513 59.8326 62.0935 59.2234C63.8034 58.5644 64.4931 56.4995 63.2905 55.1168C61.7627 53.3603 59.5112 52.2498 57.0004 52.2498C54.4896 52.2498 52.2381 53.3603 50.7103 55.1168Z" fill="white"/>
<g filter="url(#filter1_d_179_2122)">
<path d="M28.0078 33.1071L33.938 39L45.0078 28" stroke="white" stroke-width="3" stroke-linecap="round" stroke-linejoin="round"/>
</g>
<defs>
<filter id="filter0_f_179_2122" x="38" y="32" width="38" height="38" filterUnits="userSpaceOnUse" color-interpolation-filters="sRGB">
<feFlood flood-opacity="0" result="BackgroundImageFix"/>
<feBlend mode="normal" in="SourceGraphic" in2="BackgroundImageFix" result="shape"/>
<feGaussianBlur stdDeviation="2" result="effect1_foregroundBlur_179_2122"/>
</filter>
<filter id="filter1_d_179_2122" x="22.5078" y="26.5" width="28" height="22" filterUnits="userSpaceOnUse" color-interpolation-filters="sRGB">
<feFlood flood-opacity="0" result="BackgroundImageFix"/>
<feColorMatrix in="SourceAlpha" type="matrix" values="0 0 0 0 0 0 0 0 0 0 0 0 0 0 0 0 0 0 127 0" result="hardAlpha"/>
<feOffset dy="4"/>
<feGaussianBlur stdDeviation="2"/>
<feComposite in2="hardAlpha" operator="out"/>
<feColorMatrix type="matrix" values="0 0 0 0 0.615686 0 0 0 0 0.486275 0 0 0 0 0.87451 0 0 0 1 0"/>
<feBlend mode="normal" in2="BackgroundImageFix" result="effect1_dropShadow_179_2122"/>
<feBlend mode="normal" in="SourceGraphic" in2="effect1_dropShadow_179_2122" result="shape"/>
</filter>
<linearGradient id="paint0_linear_179_2122" x1="13.5" y1="49.4999" x2="36" y2="9.99988" gradientUnits="userSpaceOnUse">
<stop stop-color="#73BECE" stop-opacity="0"/>
<stop offset="1" stop-color="#C6F5FF" stop-opacity="0.87"/>
</linearGradient>
<linearGradient id="paint1_linear_179_2122" x1="44" y1="48.5002" x2="41" y2="12.0002" gradientUnits="userSpaceOnUse">
<stop stop-color="#DACDF3" stop-opacity="0.23"/>
<stop offset="1" stop-color="#A77FE7"/>
</linearGradient>
<linearGradient id="paint2_linear_179_2122" x1="64.9167" y1="40.1667" x2="51.1667" y2="63.5" gradientUnits="userSpaceOnUse">
<stop stop-color="#9A61F5"/>
<stop offset="1" stop-color="#D9D6FA"/>
</linearGradient>
</defs>
</svg>
