<svg width="80" height="80" viewBox="0 0 80 80" fill="none" xmlns="http://www.w3.org/2000/svg">
<path d="M57.705 65.625H14.295C10.2663 65.625 7 62.3587 7 58.33V22.295C7 18.2662 10.2663 15 14.295 15H57.705C61.7338 15 65 18.2662 65 22.295V58.33C65 62.3587 61.7338 65.625 57.705 65.625Z" fill="url(#paint0_linear_511_888)"/>
<g filter="url(#filter0_d_511_888)">
<path d="M40.105 40.0875L36.7287 38.0612C36.28 37.7925 35.72 37.7925 35.2712 38.0612L31.895 40.0875C30.9512 40.6537 29.75 39.9737 29.75 38.8725V15H42.25V38.8737C42.25 39.975 41.0487 40.655 40.105 40.0875Z" fill="white"/>
</g>
<g filter="url(#filter1_f_511_888)">
<circle cx="60" cy="58" r="15" fill="url(#paint1_linear_511_888)"/>
<circle cx="60" cy="58" r="14.5" stroke="white"/>
</g>
<circle cx="60" cy="58" r="14.5" stroke="white"/>
<path d="M54 57.7143L58.186 62L66 54" stroke="white" stroke-width="3" stroke-linecap="round" stroke-linejoin="round"/>
<defs>
<filter id="filter0_d_511_888" x="25.75" y="15" width="20.5" height="33.292" filterUnits="userSpaceOnUse" color-interpolation-filters="sRGB">
<feFlood flood-opacity="0" result="BackgroundImageFix"/>
<feColorMatrix in="SourceAlpha" type="matrix" values="0 0 0 0 0 0 0 0 0 0 0 0 0 0 0 0 0 0 127 0" result="hardAlpha"/>
<feOffset dy="4"/>
<feGaussianBlur stdDeviation="2"/>
<feComposite in2="hardAlpha" operator="out"/>
<feColorMatrix type="matrix" values="0 0 0 0 0.603922 0 0 0 0 0.380392 0 0 0 0 0.960784 0 0 0 1 0"/>
<feBlend mode="normal" in2="BackgroundImageFix" result="effect1_dropShadow_511_888"/>
<feBlend mode="normal" in="SourceGraphic" in2="effect1_dropShadow_511_888" result="shape"/>
</filter>
<filter id="filter1_f_511_888" x="44" y="42" width="32" height="32" filterUnits="userSpaceOnUse" color-interpolation-filters="sRGB">
<feFlood flood-opacity="0" result="BackgroundImageFix"/>
<feBlend mode="normal" in="SourceGraphic" in2="BackgroundImageFix" result="shape"/>
<feGaussianBlur stdDeviation="0.5" result="effect1_foregroundBlur_511_888"/>
</filter>
<linearGradient id="paint0_linear_511_888" x1="50.7544" y1="18.9967" x2="31.7568" y2="55.9028" gradientUnits="userSpaceOnUse">
<stop stop-color="#D4F1F6"/>
<stop offset="1" stop-color="#9A61F5"/>
</linearGradient>
<linearGradient id="paint1_linear_511_888" x1="67.9167" y1="47.1667" x2="54.1667" y2="70.5" gradientUnits="userSpaceOnUse">
<stop stop-color="#AB78FD"/>
<stop offset="1" stop-color="#C4D4F2"/>
</linearGradient>
</defs>
</svg>
