<svg width="80" height="80" viewBox="0 0 80 80" fill="none" xmlns="http://www.w3.org/2000/svg">
<circle cx="46" cy="40" r="28" fill="url(#paint0_linear_511_868)"/>
<g filter="url(#filter0_f_511_868)">
<circle cx="46" cy="40" r="23.5" stroke="white"/>
</g>
<g filter="url(#filter1_d_511_868)">
<path fill-rule="evenodd" clip-rule="evenodd" d="M46.5028 27C44.9431 27 43.6773 28.2657 43.6773 29.833C43.6773 31.3927 44.9431 32.6588 46.5028 32.6588C48.0623 32.6588 49.3284 31.3927 49.3284 29.833C49.3284 28.2657 48.0623 27 46.5028 27ZM49.2154 36.5542L55.7105 35.6351C56.5318 35.5221 57.1044 34.761 56.984 33.9472C56.871 33.1259 56.1099 32.5533 55.2961 32.6737L47.6407 33.7512H45.365L37.7097 32.6737C36.8959 32.5533 36.1347 33.1259 36.0143 33.9472C35.901 34.761 36.4737 35.5221 37.2952 35.6351L43.79 36.5542L43.8355 36.69C44.0463 37.3305 43.5941 41.3617 43.353 43.3434L40.7989 51.2024C40.5878 52.001 41.0701 52.8222 41.869 53.0256C41.9968 53.0559 42.125 53.0785 42.2457 53.0785C42.9162 53.0785 43.5189 52.6263 43.6999 51.9558L46.1788 44.3757C46.1788 44.3757 46.224 44.1117 46.4725 44.1117C46.7366 44.1117 46.774 44.3757 46.774 44.3757L49.2529 51.9106C49.4565 52.7092 50.2778 53.1915 51.0764 52.9804C51.875 52.777 52.3576 51.9558 52.1539 51.1569L49.7051 43.7427C49.4791 41.9718 48.9365 37.3757 49.1702 36.69C49.174 36.6787 49.1778 36.6673 49.1816 36.656C49.1929 36.622 49.2042 36.5881 49.2154 36.5542Z" fill="white"/>
</g>
<g filter="url(#filter2_f_511_868)">
<circle cx="22" cy="51" r="15" fill="url(#paint1_linear_511_868)"/>
<circle cx="22" cy="51" r="14.5" stroke="white"/>
</g>
<circle cx="22" cy="51" r="14.5" stroke="white"/>
<path fill-rule="evenodd" clip-rule="evenodd" d="M24.804 46.2837C24.8268 46.1387 24.8387 45.9901 24.8387 45.8387C24.8387 44.2709 23.5677 43 22 43C20.4322 43 19.1613 44.2709 19.1613 45.8387C19.1613 45.9901 19.1731 46.1388 19.196 46.2838C17.332 47.2848 16.0646 49.2526 16.0646 51.5165C16.0646 51.8098 16.0859 52.0981 16.127 52.3801C14.9037 52.6959 14 53.8068 14 55.1288C14 56.6966 15.2709 57.9675 16.8387 57.9675C17.8086 57.9675 18.6649 57.4811 19.177 56.7389C20.0165 57.1937 20.9781 57.452 22.0001 57.452C23.0219 57.452 23.9835 57.1937 24.8231 56.7389C25.3351 57.4811 26.1914 57.9675 27.1613 57.9675C28.7291 57.9675 30 56.6966 30 55.1288C30 53.8069 29.0964 52.696 27.8732 52.3801C27.9143 52.0982 27.9355 51.8098 27.9355 51.5165C27.9355 49.2525 26.6681 47.2847 24.804 46.2837ZM19.5316 47.2417C20.0201 48.0992 20.9425 48.6774 22 48.6774C23.0575 48.6774 23.9799 48.0992 24.4684 47.2416C25.9433 48.095 26.9355 49.6899 26.9355 51.5165C26.9355 51.7847 26.9141 52.0479 26.873 52.3046C25.4406 52.449 24.3226 53.6584 24.3226 55.1288C24.3226 55.3691 24.3524 55.6025 24.4087 55.8253C23.6962 56.2244 22.8747 56.452 22.0001 56.452C21.1254 56.452 20.3038 56.2244 19.5914 55.8253C19.6476 55.6024 19.6774 55.3691 19.6774 55.1288C19.6774 53.6584 18.5595 52.4491 17.1272 52.3046C17.086 52.0479 17.0646 51.7847 17.0646 51.5165C17.0646 49.6899 18.0568 48.0951 19.5316 47.2417Z" fill="white"/>
<defs>
<filter id="filter0_f_511_868" x="21" y="15" width="50" height="50" filterUnits="userSpaceOnUse" color-interpolation-filters="sRGB">
<feFlood flood-opacity="0" result="BackgroundImageFix"/>
<feBlend mode="normal" in="SourceGraphic" in2="BackgroundImageFix" result="shape"/>
<feGaussianBlur stdDeviation="0.5" result="effect1_foregroundBlur_511_868"/>
</filter>
<filter id="filter1_d_511_868" x="32" y="27" width="29" height="34.0786" filterUnits="userSpaceOnUse" color-interpolation-filters="sRGB">
<feFlood flood-opacity="0" result="BackgroundImageFix"/>
<feColorMatrix in="SourceAlpha" type="matrix" values="0 0 0 0 0 0 0 0 0 0 0 0 0 0 0 0 0 0 127 0" result="hardAlpha"/>
<feOffset dy="4"/>
<feGaussianBlur stdDeviation="2"/>
<feComposite in2="hardAlpha" operator="out"/>
<feColorMatrix type="matrix" values="0 0 0 0 0.565219 0 0 0 0 0.332031 0 0 0 0 0.9375 0 0 0 1 0"/>
<feBlend mode="normal" in2="BackgroundImageFix" result="effect1_dropShadow_511_868"/>
<feBlend mode="normal" in="SourceGraphic" in2="effect1_dropShadow_511_868" result="shape"/>
</filter>
<filter id="filter2_f_511_868" x="6" y="35" width="32" height="32" filterUnits="userSpaceOnUse" color-interpolation-filters="sRGB">
<feFlood flood-opacity="0" result="BackgroundImageFix"/>
<feBlend mode="normal" in="SourceGraphic" in2="BackgroundImageFix" result="shape"/>
<feGaussianBlur stdDeviation="0.5" result="effect1_foregroundBlur_511_868"/>
</filter>
<linearGradient id="paint0_linear_511_868" x1="60.2456" y1="16.4211" x2="37.6491" y2="54.7368" gradientUnits="userSpaceOnUse">
<stop stop-color="#D4F1F6"/>
<stop offset="1" stop-color="#9A61F5"/>
</linearGradient>
<linearGradient id="paint1_linear_511_868" x1="12.5" y1="62" x2="36" y2="40" gradientUnits="userSpaceOnUse">
<stop stop-color="#AB78FD"/>
<stop offset="1" stop-color="#C4D4F2"/>
</linearGradient>
</defs>
</svg>
