<svg width="80" height="80" viewBox="0 0 80 80" fill="none" xmlns="http://www.w3.org/2000/svg">
<g clip-path="url(#clip0_736_716)">
<path d="M51 19C51 15.6863 48.3137 13 45 13H10C6.68629 13 4 15.6863 4 19V44.4066C4 47.7203 6.68629 50.4066 10 50.4066H27.4031C28.4495 50.4066 29.4777 50.6803 30.3857 51.2004L39.2795 56.2956C41.3815 57.4999 44 55.9823 44 53.5597C44 51.8183 45.4117 50.4066 47.1531 50.4066H47.5C49.433 50.4066 51 48.8396 51 46.9066V19Z" fill="url(#paint0_linear_736_716)"/>
<g filter="url(#filter0_f_736_716)">
<path d="M27 31C27 27.6863 29.6863 25 33 25H68C71.3137 25 74 27.6863 74 31V56C74 59.3137 71.3137 62 68 62H49.5273C49.1817 62 48.8419 62.0896 48.5413 62.26L36.986 68.8079C35.6528 69.5634 34 68.6003 34 67.0679V62H33C29.6863 62 27 59.3137 27 56V31Z" fill="url(#paint1_linear_736_716)"/>
<path d="M34.5 62V61.5H34H33C29.9624 61.5 27.5 59.0376 27.5 56V31C27.5 27.9624 29.9624 25.5 33 25.5H68C71.0376 25.5 73.5 27.9624 73.5 31V56C73.5 59.0376 71.0376 61.5 68 61.5H49.5273C49.0953 61.5 48.6706 61.6119 48.2947 61.8249L36.7395 68.3729C35.7396 68.9395 34.5 68.2172 34.5 67.0679V62Z" stroke="white"/>
</g>
<path d="M34.5 62V61.5H34H33C29.9624 61.5 27.5 59.0376 27.5 56V31C27.5 27.9624 29.9624 25.5 33 25.5H68C71.0376 25.5 73.5 27.9624 73.5 31V56C73.5 59.0376 71.0376 61.5 68 61.5H49.5273C49.0953 61.5 48.6706 61.6119 48.2947 61.8249L36.7395 68.3729C35.7396 68.9395 34.5 68.2172 34.5 67.0679V62Z" fill="url(#paint2_linear_736_716)" stroke="white"/>
<g filter="url(#filter1_d_736_716)">
<path d="M36 39.5H60.5" stroke="white" stroke-width="3" stroke-linecap="round" stroke-linejoin="round"/>
</g>
<g filter="url(#filter2_d_736_716)">
<path d="M36 48H53" stroke="white" stroke-width="3" stroke-linecap="round" stroke-linejoin="round"/>
</g>
<path d="M47 19.4996L43.0738 20.0733L42.5 24L41.9262 20.0733L38 19.4996L41.9262 18.9258L42.5 15L43.0738 18.9258L47 19.4996Z" fill="white"/>
<path d="M24 45.9992L17.0201 47.0193L16 54L14.9799 47.0193L8 45.9992L14.9799 44.9792L16 38L17.0201 44.9792L24 45.9992Z" fill="white"/>
</g>
<defs>
<filter id="filter0_f_736_716" x="19" y="17" width="63" height="60.0708" filterUnits="userSpaceOnUse" color-interpolation-filters="sRGB">
<feFlood flood-opacity="0" result="BackgroundImageFix"/>
<feBlend mode="normal" in="SourceGraphic" in2="BackgroundImageFix" result="shape"/>
<feGaussianBlur stdDeviation="4" result="effect1_foregroundBlur_736_716"/>
</filter>
<filter id="filter1_d_736_716" x="30.5" y="37" width="35.5" height="11" filterUnits="userSpaceOnUse" color-interpolation-filters="sRGB">
<feFlood flood-opacity="0" result="BackgroundImageFix"/>
<feColorMatrix in="SourceAlpha" type="matrix" values="0 0 0 0 0 0 0 0 0 0 0 0 0 0 0 0 0 0 127 0" result="hardAlpha"/>
<feOffset dy="3"/>
<feGaussianBlur stdDeviation="2"/>
<feComposite in2="hardAlpha" operator="out"/>
<feColorMatrix type="matrix" values="0 0 0 0 0.791667 0 0 0 0 0.486065 0 0 0 0 0.267187 0 0 0 1 0"/>
<feBlend mode="normal" in2="BackgroundImageFix" result="effect1_dropShadow_736_716"/>
<feBlend mode="normal" in="SourceGraphic" in2="effect1_dropShadow_736_716" result="shape"/>
</filter>
<filter id="filter2_d_736_716" x="30.5" y="45.5" width="28" height="11" filterUnits="userSpaceOnUse" color-interpolation-filters="sRGB">
<feFlood flood-opacity="0" result="BackgroundImageFix"/>
<feColorMatrix in="SourceAlpha" type="matrix" values="0 0 0 0 0 0 0 0 0 0 0 0 0 0 0 0 0 0 127 0" result="hardAlpha"/>
<feOffset dy="3"/>
<feGaussianBlur stdDeviation="2"/>
<feComposite in2="hardAlpha" operator="out"/>
<feColorMatrix type="matrix" values="0 0 0 0 0.791667 0 0 0 0 0.486065 0 0 0 0 0.267187 0 0 0 1 0"/>
<feBlend mode="normal" in2="BackgroundImageFix" result="effect1_dropShadow_736_716"/>
<feBlend mode="normal" in="SourceGraphic" in2="effect1_dropShadow_736_716" result="shape"/>
</filter>
<linearGradient id="paint0_linear_736_716" x1="12.5" y1="13" x2="32" y2="49" gradientUnits="userSpaceOnUse">
<stop stop-color="#FCE6D6"/>
<stop offset="1" stop-color="#E08545"/>
</linearGradient>
<linearGradient id="paint1_linear_736_716" x1="71.5" y1="25" x2="50.5" y2="70.5" gradientUnits="userSpaceOnUse">
<stop stop-color="#F8CDAB"/>
<stop offset="1" stop-color="#E8A06A"/>
</linearGradient>
<linearGradient id="paint2_linear_736_716" x1="71.5" y1="25" x2="50.5" y2="70.5" gradientUnits="userSpaceOnUse">
<stop stop-color="#F8CDAB"/>
<stop offset="1" stop-color="#E8A06A"/>
</linearGradient>
<clipPath id="clip0_736_716">
<rect width="80" height="80" fill="white"/>
</clipPath>
</defs>
</svg>
