<svg width="80" height="80" viewBox="0 0 80 80" fill="none" xmlns="http://www.w3.org/2000/svg">
<path d="M68.1505 19.5572L49.7102 10.4837C48.4203 9.85336 46.8958 9.8387 45.6059 10.469L26.6966 19.5719C25.1134 20.3194 24.0874 21.9025 24.0287 23.6469C22.9147 62.4183 47.6434 68.9853 47.6434 68.9853C47.6434 68.9853 71.9323 62.4183 70.7743 23.6176C70.7303 21.8879 69.7043 20.3194 68.1505 19.5572Z" fill="#73BECE"/>
<path d="M47.6584 69C47.6584 69 47.5851 68.9853 47.4092 68.9267V10.0147C48.2007 9.97068 48.9923 10.1319 49.7105 10.4837L68.1655 19.5573C69.7192 20.3195 70.7307 21.8879 70.7893 23.6176C71.9327 62.433 47.6584 69 47.6584 69Z" fill="url(#paint0_linear_736_754)"/>
<g filter="url(#filter0_f_736_754)">
<circle cx="27" cy="49" r="18" fill="url(#paint1_linear_736_754)"/>
<circle cx="27" cy="49" r="17.5" stroke="white"/>
</g>
<circle cx="27" cy="49" r="17.5" stroke="white"/>
<g filter="url(#filter1_d_736_754)">
<path d="M19 48.1071L24.9302 54L36 43" stroke="white" stroke-width="3" stroke-linecap="round" stroke-linejoin="round"/>
</g>
<path d="M29 13.4995L24.2013 14.2008L23.5 19L22.7987 14.2008L18 13.4995L22.7987 12.7982L23.5 8L24.2013 12.7982L29 13.4995Z" fill="white"/>
<path d="M67 28.9992L60.0201 30.0193L59 37L57.9799 30.0193L51 28.9992L57.9799 27.9792L59 21L60.0201 27.9792L67 28.9992Z" fill="white"/>
<defs>
<filter id="filter0_f_736_754" x="5" y="27" width="44" height="44" filterUnits="userSpaceOnUse" color-interpolation-filters="sRGB">
<feFlood flood-opacity="0" result="BackgroundImageFix"/>
<feBlend mode="normal" in="SourceGraphic" in2="BackgroundImageFix" result="shape"/>
<feGaussianBlur stdDeviation="2" result="effect1_foregroundBlur_736_754"/>
</filter>
<filter id="filter1_d_736_754" x="13.5" y="41.5" width="28" height="22" filterUnits="userSpaceOnUse" color-interpolation-filters="sRGB">
<feFlood flood-opacity="0" result="BackgroundImageFix"/>
<feColorMatrix in="SourceAlpha" type="matrix" values="0 0 0 0 0 0 0 0 0 0 0 0 0 0 0 0 0 0 127 0" result="hardAlpha"/>
<feOffset dy="4"/>
<feGaussianBlur stdDeviation="2"/>
<feComposite in2="hardAlpha" operator="out"/>
<feColorMatrix type="matrix" values="0 0 0 0 0.356863 0 0 0 0 0.686275 0 0 0 0 0.760784 0 0 0 1 0"/>
<feBlend mode="normal" in2="BackgroundImageFix" result="effect1_dropShadow_736_754"/>
<feBlend mode="normal" in="SourceGraphic" in2="effect1_dropShadow_736_754" result="shape"/>
</filter>
<linearGradient id="paint0_linear_736_754" x1="47" y1="12.5" x2="60.5" y2="54.5" gradientUnits="userSpaceOnUse">
<stop stop-color="#CBE7ED"/>
<stop offset="1" stop-color="white" stop-opacity="0"/>
</linearGradient>
<linearGradient id="paint1_linear_736_754" x1="36.5" y1="36" x2="20" y2="64" gradientUnits="userSpaceOnUse">
<stop stop-color="#88CAD8"/>
<stop offset="1" stop-color="#BDE2EA"/>
</linearGradient>
</defs>
</svg>
